G04 #@! TF.FileFunction,Soldermask,Bot*
%FSLAX46Y46*%
G04 Gerber Fmt 4.6, Leading zero omitted, Abs format (unit mm)*
G04 Created by KiCad (PCBNEW 4.0.2-stable) date 2017-03-21 6:26:13 PM*
%MOMM*%
G01*
G04 APERTURE LIST*
%ADD10C,0.200000*%
%ADD11R,1.700000X1.700000*%
%ADD12O,1.700000X1.700000*%
%ADD13R,0.250000X1.000000*%
%ADD14R,1.000000X0.250000*%
%ADD15R,1.143000X0.812800*%
%ADD16R,1.143000X1.397000*%
%ADD17R,0.812800X1.143000*%
%ADD18R,1.600200X2.999740*%
%ADD19R,0.762000X0.609600*%
%ADD20R,2.397760X2.397760*%
%ADD21O,4.000000X2.500000*%
%ADD22O,2.500000X2.000000*%
%ADD23O,1.500000X3.500000*%
%ADD24O,2.500000X4.000000*%
%ADD25O,2.000000X2.500000*%
%ADD26O,3.500000X1.500000*%
%ADD27R,1.500000X1.500000*%
%ADD28R,1.600000X2.800000*%
%ADD29C,1.500000*%
%ADD30O,1.400000X2.200000*%
%ADD31O,1.400000X2.250000*%
%ADD32R,2.000000X3.800000*%
%ADD33R,2.000000X1.500000*%
%ADD34R,3.800000X2.000000*%
%ADD35R,1.500000X2.000000*%
%ADD36R,1.500000X0.450000*%
%ADD37R,1.450000X0.450000*%
%ADD38R,0.650000X1.060000*%
%ADD39R,1.500000X0.400000*%
%ADD40C,1.998980*%
%ADD41R,1.600000X1.250000*%
%ADD42R,1.200000X1.200000*%
%ADD43C,1.200000*%
%ADD44C,2.500000*%
%ADD45R,2.500000X3.500000*%
%ADD46O,4.500000X1.350000*%
%ADD47O,4.200000X1.000000*%
%ADD48O,1.000000X4.200000*%
%ADD49C,1.000000*%
G04 APERTURE END LIST*
D10*
D11*
X159500000Y-52200000D03*
D12*
X162040000Y-52200000D03*
X159500000Y-49660000D03*
X162040000Y-49660000D03*
X159500000Y-47120000D03*
X162040000Y-47120000D03*
X159500000Y-44580000D03*
X162040000Y-44580000D03*
X159500000Y-42040000D03*
X162040000Y-42040000D03*
D13*
X116850000Y-45100000D03*
X117350000Y-45100000D03*
X117850000Y-45100000D03*
X118350000Y-45100000D03*
X118850000Y-45100000D03*
X119350000Y-45100000D03*
X119850000Y-45100000D03*
X120350000Y-45100000D03*
X120850000Y-45100000D03*
X121350000Y-45100000D03*
X121850000Y-45100000D03*
X122350000Y-45100000D03*
X122850000Y-45100000D03*
X123350000Y-45100000D03*
X123850000Y-45100000D03*
X124350000Y-45100000D03*
D14*
X126300000Y-47050000D03*
X126300000Y-47550000D03*
X126300000Y-48050000D03*
X126300000Y-48550000D03*
X126300000Y-49050000D03*
X126300000Y-49550000D03*
X126300000Y-50050000D03*
X126300000Y-50550000D03*
X126300000Y-51050000D03*
X126300000Y-51550000D03*
X126300000Y-52050000D03*
X126300000Y-52550000D03*
X126300000Y-53050000D03*
X126300000Y-53550000D03*
X126300000Y-54050000D03*
X126300000Y-54550000D03*
D13*
X124350000Y-56500000D03*
X123850000Y-56500000D03*
X123350000Y-56500000D03*
X122850000Y-56500000D03*
X122350000Y-56500000D03*
X121850000Y-56500000D03*
X121350000Y-56500000D03*
X120850000Y-56500000D03*
X120350000Y-56500000D03*
X119850000Y-56500000D03*
X119350000Y-56500000D03*
X118850000Y-56500000D03*
X118350000Y-56500000D03*
X117850000Y-56500000D03*
X117350000Y-56500000D03*
X116850000Y-56500000D03*
D14*
X114900000Y-54550000D03*
X114900000Y-54050000D03*
X114900000Y-53550000D03*
X114900000Y-53050000D03*
X114900000Y-52550000D03*
X114900000Y-52050000D03*
X114900000Y-51550000D03*
X114900000Y-51050000D03*
X114900000Y-50550000D03*
X114900000Y-50050000D03*
X114900000Y-49550000D03*
X114900000Y-49050000D03*
X114900000Y-48550000D03*
X114900000Y-48050000D03*
X114900000Y-47550000D03*
X114900000Y-47050000D03*
D15*
X132300000Y-70749100D03*
X132300000Y-72450900D03*
D16*
X143079500Y-75500000D03*
X140920500Y-75500000D03*
D15*
X141250000Y-125399100D03*
X141250000Y-127100900D03*
D17*
X124350900Y-65900000D03*
X122649100Y-65900000D03*
X130750900Y-65800000D03*
X129049100Y-65800000D03*
D15*
X121000000Y-64249100D03*
X121000000Y-65950900D03*
D16*
X134020500Y-67500000D03*
X136179500Y-67500000D03*
D17*
X131450900Y-78900000D03*
X129749100Y-78900000D03*
D15*
X129000000Y-87950900D03*
X129000000Y-86249100D03*
X125500000Y-87850900D03*
X125500000Y-86149100D03*
D17*
X123749100Y-78900000D03*
X125450900Y-78900000D03*
D15*
X140200000Y-115849100D03*
X140200000Y-117550900D03*
X152750000Y-114100900D03*
X152750000Y-112399100D03*
X114900000Y-42950900D03*
X114900000Y-41249100D03*
X122900000Y-41049100D03*
X122900000Y-42750900D03*
D17*
X113050900Y-41500000D03*
X111349100Y-41500000D03*
X128949100Y-51400000D03*
X130650900Y-51400000D03*
D15*
X138600000Y-95250900D03*
X138600000Y-93549100D03*
X137800000Y-100449100D03*
X137800000Y-102150900D03*
X152300000Y-99150900D03*
X152300000Y-97449100D03*
D17*
X149749100Y-103200000D03*
X151450900Y-103200000D03*
X140549100Y-95000000D03*
X142250900Y-95000000D03*
X139549100Y-102600000D03*
X141250900Y-102600000D03*
X146150900Y-94900000D03*
X144449100Y-94900000D03*
X146850900Y-102600000D03*
X145149100Y-102600000D03*
D15*
X115300000Y-58349100D03*
X115300000Y-60050900D03*
D17*
X129549100Y-47300000D03*
X131250900Y-47300000D03*
X128949100Y-54900000D03*
X130650900Y-54900000D03*
X113150900Y-47000000D03*
X111449100Y-47000000D03*
X128949100Y-53100000D03*
X130650900Y-53100000D03*
D15*
X117100000Y-58349100D03*
X117100000Y-60050900D03*
X126700000Y-42750900D03*
X126700000Y-41049100D03*
D17*
X133649100Y-83400000D03*
X135350900Y-83400000D03*
X120349100Y-83400000D03*
X122050900Y-83400000D03*
D15*
X136700000Y-99050900D03*
X136700000Y-97349100D03*
X148900000Y-97449100D03*
X148900000Y-99150900D03*
X148900000Y-120550900D03*
X148900000Y-118849100D03*
X136300000Y-104849100D03*
X136300000Y-106550900D03*
X124500000Y-97349100D03*
X124500000Y-99050900D03*
X124500000Y-95950900D03*
X124500000Y-94249100D03*
D17*
X146250900Y-47500000D03*
X144549100Y-47500000D03*
D15*
X160100000Y-58450900D03*
X160100000Y-56749100D03*
D18*
X150400000Y-40400360D03*
X150400000Y-44799640D03*
X150500000Y-49900360D03*
X150500000Y-54299640D03*
D17*
X134350900Y-47300000D03*
X132649100Y-47300000D03*
X149949100Y-61000000D03*
X151650900Y-61000000D03*
X132849100Y-133900000D03*
X134550900Y-133900000D03*
D19*
X152700000Y-118755400D03*
X152700000Y-121244600D03*
X120900000Y-127355400D03*
X120900000Y-129844600D03*
D20*
X155700000Y-44399640D03*
X155700000Y-40000360D03*
X155700000Y-54299640D03*
X155700000Y-49900360D03*
D21*
X135300000Y-115900000D03*
D22*
X135300000Y-125300000D03*
D23*
X140200000Y-120600000D03*
X132000000Y-120600000D03*
D24*
X130600000Y-135600000D03*
D25*
X140000000Y-135600000D03*
D26*
X135300000Y-130700000D03*
X135300000Y-138900000D03*
D21*
X135300000Y-95300000D03*
D22*
X135300000Y-85900000D03*
D23*
X130400000Y-90600000D03*
X138600000Y-90600000D03*
D21*
X135300000Y-110300000D03*
D22*
X135300000Y-100900000D03*
D23*
X130400000Y-105600000D03*
X138600000Y-105600000D03*
D21*
X135300000Y-80300000D03*
D22*
X135300000Y-70900000D03*
D23*
X130400000Y-75600000D03*
X138600000Y-75600000D03*
D21*
X120300000Y-80300000D03*
D22*
X120300000Y-70900000D03*
D23*
X115400000Y-75600000D03*
X123600000Y-75600000D03*
D21*
X120300000Y-95300000D03*
D22*
X120300000Y-85900000D03*
D23*
X115400000Y-90600000D03*
X123600000Y-90600000D03*
D21*
X120300000Y-110300000D03*
D22*
X120300000Y-100900000D03*
D23*
X115400000Y-105600000D03*
X123600000Y-105600000D03*
D21*
X120300000Y-115900000D03*
D22*
X120300000Y-125300000D03*
D23*
X125200000Y-120600000D03*
X117000000Y-120600000D03*
D21*
X150300000Y-80300000D03*
D22*
X150300000Y-70900000D03*
D23*
X145400000Y-75600000D03*
X153600000Y-75600000D03*
D21*
X150300000Y-95300000D03*
D22*
X150300000Y-85900000D03*
D23*
X145400000Y-90600000D03*
X153600000Y-90600000D03*
D21*
X150300000Y-110300000D03*
D22*
X150300000Y-100900000D03*
D23*
X145400000Y-105600000D03*
X153600000Y-105600000D03*
D24*
X145600000Y-120600000D03*
D25*
X155000000Y-120600000D03*
D26*
X150300000Y-115700000D03*
X150300000Y-123900000D03*
D15*
X132300000Y-69450900D03*
X132300000Y-67749100D03*
X124900000Y-41049100D03*
X124900000Y-42750900D03*
D27*
X123228000Y-129370000D03*
X123228000Y-126830000D03*
X123228000Y-124290000D03*
X123228000Y-131910000D03*
X132372000Y-131910000D03*
X132372000Y-129370000D03*
X132372000Y-126830000D03*
X132372000Y-124290000D03*
D28*
X140250000Y-47000000D03*
D29*
X124400000Y-62100000D03*
X130400000Y-97300000D03*
X137500000Y-113700000D03*
D11*
X108700000Y-53000000D03*
D12*
X108700000Y-50460000D03*
X108700000Y-47920000D03*
X108700000Y-45380000D03*
X108700000Y-42840000D03*
X108700000Y-40300000D03*
D29*
X129400000Y-43300000D03*
D17*
X143449100Y-138900000D03*
X145150900Y-138900000D03*
X124350900Y-64100000D03*
X122649100Y-64100000D03*
X140350900Y-123600000D03*
X138649100Y-123600000D03*
X136050900Y-122800000D03*
X134349100Y-122800000D03*
D15*
X134400000Y-90049100D03*
X134400000Y-91750900D03*
X132600000Y-104849100D03*
X132600000Y-106550900D03*
D17*
X132549100Y-74400000D03*
X134250900Y-74400000D03*
D15*
X137300000Y-82449100D03*
X137300000Y-84150900D03*
X132900000Y-86249100D03*
X132900000Y-87950900D03*
X123700000Y-86149100D03*
X123700000Y-87850900D03*
X117900000Y-82649100D03*
X117900000Y-84350900D03*
D17*
X127950900Y-90100000D03*
X126249100Y-90100000D03*
X126249100Y-91800000D03*
X127950900Y-91800000D03*
D15*
X131100000Y-87950900D03*
X131100000Y-86249100D03*
X121400000Y-89750900D03*
X121400000Y-88049100D03*
X116900000Y-79149100D03*
X116900000Y-80850900D03*
D17*
X135149100Y-76900000D03*
X136850900Y-76900000D03*
X133850900Y-76900000D03*
X132149100Y-76900000D03*
X131250900Y-93400000D03*
X129549100Y-93400000D03*
D15*
X121400000Y-91049100D03*
X121400000Y-92750900D03*
D17*
X119949100Y-77100000D03*
X121650900Y-77100000D03*
D15*
X140600000Y-53950900D03*
X140600000Y-52249100D03*
X133500000Y-52149100D03*
X133500000Y-53850900D03*
X138600000Y-52249100D03*
X138600000Y-53950900D03*
D17*
X143850900Y-55600000D03*
X142149100Y-55600000D03*
X126749100Y-58800000D03*
X128450900Y-58800000D03*
X143850900Y-57600000D03*
X142149100Y-57600000D03*
X145650900Y-59500000D03*
X143949100Y-59500000D03*
X145650900Y-61200000D03*
X143949100Y-61200000D03*
D15*
X126800000Y-65650900D03*
X126800000Y-63949100D03*
D17*
X136750900Y-65700000D03*
X135049100Y-65700000D03*
X145950900Y-65400000D03*
X144249100Y-65400000D03*
D15*
X142600000Y-64650900D03*
X142600000Y-62949100D03*
X155500000Y-128649100D03*
X155500000Y-130350900D03*
X155500000Y-132149100D03*
X155500000Y-133850900D03*
X155500000Y-135649100D03*
X155500000Y-137350900D03*
X155500000Y-139149100D03*
X155500000Y-140850900D03*
X111800000Y-78449100D03*
X111800000Y-80150900D03*
D17*
X159550900Y-69800000D03*
X157849100Y-69800000D03*
X109950900Y-59900000D03*
X108249100Y-59900000D03*
D15*
X138100000Y-118949100D03*
X138100000Y-120650900D03*
X111800000Y-93449100D03*
X111800000Y-95150900D03*
X111800000Y-108449100D03*
X111800000Y-110150900D03*
D17*
X159550900Y-89800000D03*
X157849100Y-89800000D03*
X159550900Y-136400000D03*
X157849100Y-136400000D03*
D15*
X111800000Y-123449100D03*
X111800000Y-125150900D03*
X138400000Y-115849100D03*
X138400000Y-117550900D03*
D17*
X126649100Y-140900000D03*
X128350900Y-140900000D03*
X159550900Y-106500000D03*
X157849100Y-106500000D03*
X159550900Y-61500000D03*
X157849100Y-61500000D03*
X159550900Y-121500000D03*
X157849100Y-121500000D03*
D15*
X150800000Y-120550900D03*
X150800000Y-118849100D03*
D17*
X113150900Y-49100000D03*
X111449100Y-49100000D03*
D15*
X142200000Y-91649100D03*
X142200000Y-93350900D03*
X142200000Y-106250900D03*
X142200000Y-104549100D03*
X147500000Y-89949100D03*
X147500000Y-91650900D03*
X147500000Y-106650900D03*
X147500000Y-104949100D03*
X140500000Y-91649100D03*
X140500000Y-93350900D03*
X140600000Y-106250900D03*
X140600000Y-104549100D03*
X149200000Y-89949100D03*
X149200000Y-91650900D03*
X149200000Y-106650900D03*
X149200000Y-104949100D03*
D17*
X120850900Y-131400000D03*
X119149100Y-131400000D03*
D15*
X137700000Y-126949100D03*
X137700000Y-128650900D03*
D30*
X157850000Y-78850000D03*
X162350000Y-78850000D03*
D31*
X157850000Y-72350000D03*
X162350000Y-72350000D03*
D30*
X108250000Y-63850000D03*
X112750000Y-63850000D03*
D31*
X108250000Y-57350000D03*
X112750000Y-57350000D03*
D30*
X157850000Y-93850000D03*
X162350000Y-93850000D03*
D31*
X157850000Y-87350000D03*
X162350000Y-87350000D03*
D30*
X157850000Y-138850000D03*
X162350000Y-138850000D03*
D31*
X157850000Y-132350000D03*
X162350000Y-132350000D03*
D30*
X157850000Y-108850000D03*
X162350000Y-108850000D03*
D31*
X157850000Y-102350000D03*
X162350000Y-102350000D03*
D30*
X157850000Y-63850000D03*
X162350000Y-63850000D03*
D31*
X157850000Y-57350000D03*
X162350000Y-57350000D03*
D30*
X157850000Y-123850000D03*
X162350000Y-123850000D03*
D31*
X157850000Y-117350000D03*
X162350000Y-117350000D03*
D32*
X138750000Y-69800000D03*
D33*
X145050000Y-69800000D03*
X145050000Y-72100000D03*
X145050000Y-67500000D03*
D34*
X145700000Y-133850000D03*
D35*
X145700000Y-127550000D03*
X148000000Y-127550000D03*
X143400000Y-127550000D03*
D36*
X130250000Y-67525000D03*
X130250000Y-68175000D03*
X130250000Y-68825000D03*
X130250000Y-69475000D03*
X130250000Y-70125000D03*
X130250000Y-70775000D03*
X130250000Y-71425000D03*
X130250000Y-72075000D03*
X124350000Y-72075000D03*
X124350000Y-71425000D03*
X124350000Y-70775000D03*
X124350000Y-70125000D03*
X124350000Y-69475000D03*
X124350000Y-68825000D03*
X124350000Y-68175000D03*
X124350000Y-67525000D03*
D37*
X124750000Y-115125000D03*
X124750000Y-114475000D03*
X124750000Y-113825000D03*
X124750000Y-113175000D03*
X124750000Y-112525000D03*
X124750000Y-111875000D03*
X124750000Y-111225000D03*
X124750000Y-110575000D03*
X124750000Y-109925000D03*
X124750000Y-109275000D03*
X130650000Y-109275000D03*
X130650000Y-109925000D03*
X130650000Y-110575000D03*
X130650000Y-111225000D03*
X130650000Y-111875000D03*
X130650000Y-112525000D03*
X130650000Y-113175000D03*
X130650000Y-113825000D03*
X130650000Y-114475000D03*
X130650000Y-115125000D03*
X130750000Y-80750000D03*
X130750000Y-81400000D03*
X130750000Y-82050000D03*
X130750000Y-82700000D03*
X130750000Y-83350000D03*
X130750000Y-84000000D03*
X130750000Y-84650000D03*
X124850000Y-84650000D03*
X124850000Y-84000000D03*
X124850000Y-83350000D03*
X124850000Y-82700000D03*
X124850000Y-82050000D03*
X124850000Y-81400000D03*
X124850000Y-80750000D03*
D38*
X126650000Y-95100000D03*
X127600000Y-95100000D03*
X128550000Y-95100000D03*
X128550000Y-97300000D03*
X126650000Y-97300000D03*
X142150000Y-115700000D03*
X143100000Y-115700000D03*
X144050000Y-115700000D03*
X144050000Y-117900000D03*
X142150000Y-117900000D03*
D39*
X139750000Y-113875000D03*
X139750000Y-113225000D03*
X139750000Y-112575000D03*
X139750000Y-111925000D03*
X139750000Y-111275000D03*
X139750000Y-110625000D03*
X139750000Y-109975000D03*
X139750000Y-109325000D03*
X145650000Y-109325000D03*
X145650000Y-109975000D03*
X145650000Y-110625000D03*
X145650000Y-111275000D03*
X145650000Y-111925000D03*
X145650000Y-112575000D03*
X145650000Y-113225000D03*
X145650000Y-113875000D03*
D37*
X139950000Y-100850000D03*
X139950000Y-100200000D03*
X139950000Y-99550000D03*
X139950000Y-98900000D03*
X139950000Y-98250000D03*
X139950000Y-97600000D03*
X139950000Y-96950000D03*
X145850000Y-96950000D03*
X145850000Y-97600000D03*
X145850000Y-98250000D03*
X145850000Y-98900000D03*
X145850000Y-99550000D03*
X145850000Y-100200000D03*
X145850000Y-100850000D03*
D40*
X150300000Y-63300000D03*
X155300000Y-63300000D03*
X145300000Y-63300000D03*
X136300000Y-47300000D03*
X136300000Y-42300000D03*
X136300000Y-52300000D03*
D41*
X117050000Y-40900000D03*
X117050000Y-43100000D03*
X120750000Y-40900000D03*
X120750000Y-43100000D03*
D42*
X151030000Y-140900000D03*
D43*
X153570000Y-140900000D03*
D42*
X139230000Y-60400000D03*
D43*
X141770000Y-60400000D03*
D42*
X122530000Y-140900000D03*
D43*
X125070000Y-140900000D03*
D42*
X111800000Y-119330000D03*
D43*
X111800000Y-121870000D03*
D42*
X111800000Y-104330000D03*
D43*
X111800000Y-106870000D03*
D42*
X111800000Y-89330000D03*
D43*
X111800000Y-91870000D03*
D42*
X111800000Y-74330000D03*
D43*
X111800000Y-76870000D03*
D42*
X151030000Y-137400000D03*
D43*
X153570000Y-137400000D03*
D42*
X151030000Y-133900000D03*
D43*
X153570000Y-133900000D03*
D42*
X151030000Y-130400000D03*
D43*
X153570000Y-130400000D03*
D42*
X140500000Y-65240000D03*
D43*
X140500000Y-62700000D03*
D42*
X135730000Y-64000000D03*
D43*
X138270000Y-64000000D03*
D42*
X133600000Y-65240000D03*
D43*
X133600000Y-62700000D03*
D42*
X128760000Y-63900000D03*
D43*
X131300000Y-63900000D03*
D42*
X137000000Y-61640000D03*
D43*
X137000000Y-59100000D03*
D42*
X132260000Y-60400000D03*
D43*
X134800000Y-60400000D03*
D42*
X130100000Y-61740000D03*
D43*
X130100000Y-59200000D03*
D42*
X140500000Y-58170000D03*
D43*
X140500000Y-55630000D03*
D42*
X135730000Y-56900000D03*
D43*
X138270000Y-56900000D03*
D42*
X133500000Y-58170000D03*
D43*
X133500000Y-55630000D03*
D42*
X128730000Y-56900000D03*
D43*
X131270000Y-56900000D03*
D16*
X160020500Y-39500000D03*
X162179500Y-39500000D03*
X160020500Y-55000000D03*
X162179500Y-55000000D03*
D44*
X109600000Y-135600000D03*
X120600000Y-135600000D03*
X115100000Y-141100000D03*
D45*
X115100000Y-131100000D03*
D44*
X111210000Y-139490000D03*
X118990000Y-139490000D03*
D46*
X115100000Y-131100000D03*
D47*
X111000000Y-135600000D03*
X119200000Y-135600000D03*
D48*
X115100000Y-139700000D03*
D49*
X111068629Y-139631371D02*
X113331371Y-137368629D01*
X116868629Y-137368629D02*
X119131371Y-139631371D01*
M02*
