G04 #@! TF.FileFunction,Soldermask,Top*
%FSLAX46Y46*%
G04 Gerber Fmt 4.6, Leading zero omitted, Abs format (unit mm)*
G04 Created by KiCad (PCBNEW 4.0.2-stable) date 2017-03-21 6:26:13 PM*
%MOMM*%
G01*
G04 APERTURE LIST*
%ADD10C,0.200000*%
%ADD11R,1.700000X1.700000*%
%ADD12O,1.700000X1.700000*%
%ADD13O,4.000000X2.500000*%
%ADD14O,2.500000X2.000000*%
%ADD15O,1.500000X3.500000*%
%ADD16O,2.500000X4.000000*%
%ADD17O,2.000000X2.500000*%
%ADD18O,3.500000X1.500000*%
%ADD19R,1.600000X2.800000*%
%ADD20C,1.500000*%
%ADD21O,1.400000X2.200000*%
%ADD22O,1.400000X2.250000*%
%ADD23C,1.998980*%
%ADD24R,1.200000X1.200000*%
%ADD25C,1.200000*%
%ADD26C,2.500000*%
%ADD27R,2.500000X3.500000*%
%ADD28O,4.500000X1.350000*%
%ADD29O,4.200000X1.000000*%
%ADD30O,1.000000X4.200000*%
%ADD31C,1.000000*%
G04 APERTURE END LIST*
D10*
D11*
X159500000Y-52200000D03*
D12*
X162040000Y-52200000D03*
X159500000Y-49660000D03*
X162040000Y-49660000D03*
X159500000Y-47120000D03*
X162040000Y-47120000D03*
X159500000Y-44580000D03*
X162040000Y-44580000D03*
X159500000Y-42040000D03*
X162040000Y-42040000D03*
D13*
X135300000Y-115900000D03*
D14*
X135300000Y-125300000D03*
D15*
X140200000Y-120600000D03*
X132000000Y-120600000D03*
D16*
X130600000Y-135600000D03*
D17*
X140000000Y-135600000D03*
D18*
X135300000Y-130700000D03*
X135300000Y-138900000D03*
D13*
X135300000Y-95300000D03*
D14*
X135300000Y-85900000D03*
D15*
X130400000Y-90600000D03*
X138600000Y-90600000D03*
D13*
X135300000Y-110300000D03*
D14*
X135300000Y-100900000D03*
D15*
X130400000Y-105600000D03*
X138600000Y-105600000D03*
D13*
X135300000Y-80300000D03*
D14*
X135300000Y-70900000D03*
D15*
X130400000Y-75600000D03*
X138600000Y-75600000D03*
D13*
X120300000Y-80300000D03*
D14*
X120300000Y-70900000D03*
D15*
X115400000Y-75600000D03*
X123600000Y-75600000D03*
D13*
X120300000Y-95300000D03*
D14*
X120300000Y-85900000D03*
D15*
X115400000Y-90600000D03*
X123600000Y-90600000D03*
D13*
X120300000Y-110300000D03*
D14*
X120300000Y-100900000D03*
D15*
X115400000Y-105600000D03*
X123600000Y-105600000D03*
D13*
X120300000Y-115900000D03*
D14*
X120300000Y-125300000D03*
D15*
X125200000Y-120600000D03*
X117000000Y-120600000D03*
D13*
X150300000Y-80300000D03*
D14*
X150300000Y-70900000D03*
D15*
X145400000Y-75600000D03*
X153600000Y-75600000D03*
D13*
X150300000Y-95300000D03*
D14*
X150300000Y-85900000D03*
D15*
X145400000Y-90600000D03*
X153600000Y-90600000D03*
D13*
X150300000Y-110300000D03*
D14*
X150300000Y-100900000D03*
D15*
X145400000Y-105600000D03*
X153600000Y-105600000D03*
D16*
X145600000Y-120600000D03*
D17*
X155000000Y-120600000D03*
D18*
X150300000Y-115700000D03*
X150300000Y-123900000D03*
D19*
X140250000Y-47000000D03*
D20*
X124400000Y-62100000D03*
X130400000Y-97300000D03*
X137500000Y-113700000D03*
D11*
X108700000Y-53000000D03*
D12*
X108700000Y-50460000D03*
X108700000Y-47920000D03*
X108700000Y-45380000D03*
X108700000Y-42840000D03*
X108700000Y-40300000D03*
D20*
X129400000Y-43300000D03*
D21*
X157850000Y-78850000D03*
X162350000Y-78850000D03*
D22*
X157850000Y-72350000D03*
X162350000Y-72350000D03*
D21*
X108250000Y-63850000D03*
X112750000Y-63850000D03*
D22*
X108250000Y-57350000D03*
X112750000Y-57350000D03*
D21*
X157850000Y-93850000D03*
X162350000Y-93850000D03*
D22*
X157850000Y-87350000D03*
X162350000Y-87350000D03*
D21*
X157850000Y-138850000D03*
X162350000Y-138850000D03*
D22*
X157850000Y-132350000D03*
X162350000Y-132350000D03*
D21*
X157850000Y-108850000D03*
X162350000Y-108850000D03*
D22*
X157850000Y-102350000D03*
X162350000Y-102350000D03*
D21*
X157850000Y-63850000D03*
X162350000Y-63850000D03*
D22*
X157850000Y-57350000D03*
X162350000Y-57350000D03*
D21*
X157850000Y-123850000D03*
X162350000Y-123850000D03*
D22*
X157850000Y-117350000D03*
X162350000Y-117350000D03*
D23*
X150300000Y-63300000D03*
X155300000Y-63300000D03*
X145300000Y-63300000D03*
X136300000Y-47300000D03*
X136300000Y-42300000D03*
X136300000Y-52300000D03*
D24*
X151030000Y-140900000D03*
D25*
X153570000Y-140900000D03*
D24*
X139230000Y-60400000D03*
D25*
X141770000Y-60400000D03*
D24*
X122530000Y-140900000D03*
D25*
X125070000Y-140900000D03*
D24*
X111800000Y-119330000D03*
D25*
X111800000Y-121870000D03*
D24*
X111800000Y-104330000D03*
D25*
X111800000Y-106870000D03*
D24*
X111800000Y-89330000D03*
D25*
X111800000Y-91870000D03*
D24*
X111800000Y-74330000D03*
D25*
X111800000Y-76870000D03*
D24*
X151030000Y-137400000D03*
D25*
X153570000Y-137400000D03*
D24*
X151030000Y-133900000D03*
D25*
X153570000Y-133900000D03*
D24*
X151030000Y-130400000D03*
D25*
X153570000Y-130400000D03*
D24*
X140500000Y-65240000D03*
D25*
X140500000Y-62700000D03*
D24*
X135730000Y-64000000D03*
D25*
X138270000Y-64000000D03*
D24*
X133600000Y-65240000D03*
D25*
X133600000Y-62700000D03*
D24*
X128760000Y-63900000D03*
D25*
X131300000Y-63900000D03*
D24*
X137000000Y-61640000D03*
D25*
X137000000Y-59100000D03*
D24*
X132260000Y-60400000D03*
D25*
X134800000Y-60400000D03*
D24*
X130100000Y-61740000D03*
D25*
X130100000Y-59200000D03*
D24*
X140500000Y-58170000D03*
D25*
X140500000Y-55630000D03*
D24*
X135730000Y-56900000D03*
D25*
X138270000Y-56900000D03*
D24*
X133500000Y-58170000D03*
D25*
X133500000Y-55630000D03*
D24*
X128730000Y-56900000D03*
D25*
X131270000Y-56900000D03*
D26*
X109600000Y-135600000D03*
X120600000Y-135600000D03*
X115100000Y-141100000D03*
D27*
X115100000Y-131100000D03*
D26*
X111210000Y-139490000D03*
X118990000Y-139490000D03*
D28*
X115100000Y-131100000D03*
D29*
X111000000Y-135600000D03*
X119200000Y-135600000D03*
D30*
X115100000Y-139700000D03*
D31*
X111068629Y-139631371D02*
X113331371Y-137368629D01*
X116868629Y-137368629D02*
X119131371Y-139631371D01*
M02*
