M48
INCH,TZ
T1C0.014
T2C0.016
T3C0.018
T4C0.020
T5C0.026
T6C0.033
T7C0.039
T8C0.047
T9C0.051
T10C0.055
T11C0.059
T12C0.039
T13C0.053
%
G90
G05
T1
X43543Y-37441
X43619Y-20571
X43858Y-15374
X43898Y-32047
X44016Y-43819
X44557Y-20896
X45236Y-17323
X45394Y-38504
X45433Y-34488
X45728Y-18346
X45744Y-33980
X45886Y-34305
X45993Y-18774
X46099Y-30785
X46257Y-20036
X46284Y-20817
X46300Y-19495
X46341Y-18711
X46445Y-23626
X46476Y-20315
X46496Y-24173
X46496Y-25079
X46614Y-21811
X46635Y-20632
X46795Y-19236
X46798Y-23892
X46808Y-18815
X46850Y-18420
X46870Y-21408
X47104Y-20104
X47165Y-21693
X47272Y-23403
X47402Y-28937
X47449Y-24519
X47663Y-24802
X47680Y-24015
X48018Y-20090
X48071Y-26614
X48134Y-20928
X48150Y-18430
X48155Y-18816
X48335Y-23016
X48366Y-19734
X48386Y-15374
X48465Y-21693
X48465Y-45236
X48476Y-20836
X48504Y-53976
X48504Y-53150
X48504Y-53583
X48543Y-44803
X48543Y-54409
X48622Y-44291
X48649Y-23180
X48661Y-18418
X48768Y-19088
X48977Y-23045
X49094Y-18740
X49134Y-42638
X49160Y-20401
X49166Y-20789
X49211Y-17408
X49213Y-19606
X49213Y-42165
X49301Y-21121
X49331Y-23031
X49646Y-41575
X49652Y-28648
X49764Y-27047
X49764Y-27835
X49882Y-26299
X49986Y-41748
X50020Y-44016
X50039Y-44567
X50236Y-19331
X50262Y-20254
X50298Y-19902
X50413Y-24609
X50748Y-19390
X50748Y-19724
X50866Y-44646
X50945Y-44291
X50945Y-45079
X50984Y-22874
X51102Y-19724
X51260Y-28701
X51339Y-37480
X51654Y-18110
X51663Y-38957
X51929Y-40118
X51929Y-40669
X52027Y-44812
X52126Y-17283
X52195Y-38661
X52205Y-42362
X52244Y-25118
X52520Y-17992
X53071Y-24488
X53071Y-44764
X53081Y-44410
X53228Y-17972
X53425Y-21496
X53465Y-35472
X53543Y-23701
X53996Y-17972
X54055Y-40709
X54291Y-25866
X54421Y-47787
X54449Y-16339
X55009Y-42727
X55472Y-30276
X55669Y-26850
X55669Y-28071
X55984Y-26850
X55984Y-28071
X56142Y-25866
X56339Y-26850
X56339Y-28071
X56831Y-43199
X56831Y-43553
X57047Y-45551
X57362Y-42717
X58465Y-16339
X58465Y-17205
X58465Y-17638
X58465Y-19646
X58465Y-20157
X58465Y-20630
X58465Y-21102
X58465Y-21535
X58918Y-23176
T2
X45551Y-31258
X47323Y-35866
X52638Y-49961
X53189Y-29843
X56260Y-23425
T3
X44488Y-15827
X44548Y-17913
X48632Y-32584
X49173Y-15748
X49724Y-36654
X49923Y-21888
X50236Y-36969
X52047Y-32598
X54488Y-38937
X54646Y-26378
X54894Y-33884
X55020Y-49803
X55276Y-32087
X55630Y-42283
X55945Y-46890
X56260Y-33858
X56850Y-38937
X59016Y-26378
T5
X44016Y-29264
X44016Y-30264
X44016Y-35169
X44016Y-36169
X44016Y-41075
X44016Y-42075
X44016Y-46980
X44016Y-47980
X48240Y-55472
X49240Y-55472
X50681Y-22402
X50693Y-25157
X51220Y-23307
X51220Y-24307
X51681Y-22402
X51693Y-25157
X52071Y-23780
X52559Y-21902
X52559Y-22902
X52598Y-24685
X52598Y-25685
X53071Y-23780
X53437Y-22402
X53437Y-25197
X53937Y-23268
X53937Y-24268
X54437Y-22402
X54437Y-25197
X54815Y-23780
X55315Y-21902
X55315Y-22902
X55315Y-24685
X55315Y-25685
X55815Y-23780
X59461Y-51339
X59461Y-52717
X59461Y-54094
X59461Y-55472
X60461Y-51339
X60461Y-52717
X60461Y-54094
X60461Y-55472
T6
X48976Y-24449
X50945Y-17047
X51339Y-38307
X54134Y-44764
T7
X42618Y-22579
X42618Y-25138
X42795Y-15866
X42795Y-16866
X42795Y-17866
X42795Y-18866
X42795Y-19866
X42795Y-20866
X44390Y-22579
X44390Y-25138
X62146Y-22579
X62146Y-25138
X62146Y-28484
X62146Y-31043
X62146Y-34390
X62146Y-36949
X62146Y-40295
X62146Y-42854
X62146Y-46201
X62146Y-48760
X62146Y-52106
X62146Y-54665
X62795Y-16551
X62795Y-17551
X62795Y-18551
X62795Y-19551
X62795Y-20551
X63795Y-16551
X63795Y-17551
X63795Y-18551
X63795Y-19551
X63795Y-20551
X63917Y-22579
X63917Y-25138
X63917Y-28484
X63917Y-31043
X63917Y-34390
X63917Y-36949
X63917Y-40295
X63917Y-42854
X63917Y-46201
X63917Y-48760
X63917Y-52106
X63917Y-54665
T8
X55217Y-18504
T9
X53661Y-16654
X53661Y-18622
X53661Y-20591
X57205Y-24921
X59173Y-24921
X61142Y-24921
T10
X43150Y-53386
X43783Y-54917
X45315Y-55551
X46846Y-54917
X47480Y-53386
T11
X45315Y-51614
T4
X45433Y-30157G85X45433Y-29370
G05
X45433Y-36063G85X45433Y-35276
G05
X45433Y-41969G85X45433Y-41181
G05
X46063Y-47087G85X46063Y-47874
G05
X48661Y-30157G85X48661Y-29370
G05
X48661Y-36063G85X48661Y-35276
G05
X48661Y-41969G85X48661Y-41181
G05
X49291Y-47087G85X49291Y-47874
G05
X51339Y-30157G85X51339Y-29370
G05
X51339Y-36063G85X51339Y-35276
G05
X51339Y-41969G85X51339Y-41181
G05
X51969Y-47087G85X51969Y-47874
G05
X52874Y-51457G85X53661Y-51457
G05
X52874Y-54685G85X53661Y-54685
G05
X54567Y-30157G85X54567Y-29370
G05
X54567Y-36063G85X54567Y-35276
G05
X54567Y-41969G85X54567Y-41181
G05
X55197Y-47087G85X55197Y-47874
G05
X57244Y-30157G85X57244Y-29370
G05
X57244Y-36063G85X57244Y-35276
G05
X57244Y-41969G85X57244Y-41181
G05
X58780Y-45551G85X59567Y-45551
G05
X58780Y-48780G85X59567Y-48780
G05
X60472Y-30157G85X60472Y-29370
G05
X60472Y-36063G85X60472Y-35276
G05
X60472Y-41969G85X60472Y-41181
G05
T7
X47264Y-27913G85X47461Y-27913
G05
X47067Y-31614G85X47657Y-31614
G05
X47264Y-33819G85X47461Y-33819
G05
X47067Y-37520G85X47657Y-37520
G05
X47264Y-39724G85X47461Y-39724
G05
X47067Y-43425G85X47657Y-43425
G05
X47657Y-45630G85X47067Y-45630
G05
X47461Y-49331G85X47264Y-49331
G05
X51417Y-53091G85X51417Y-53681
G05
X53169Y-27913G85X53366Y-27913
G05
X52972Y-31614G85X53563Y-31614
G05
X53169Y-33819G85X53366Y-33819
G05
X52972Y-37520G85X53563Y-37520
G05
X53169Y-39724G85X53366Y-39724
G05
X52972Y-43425G85X53563Y-43425
G05
X53563Y-45630G85X52972Y-45630
G05
X53366Y-49331G85X53169Y-49331
G05
X55118Y-53287G85X55118Y-53484
G05
X57323Y-47185G85X57323Y-47776
G05
X59075Y-27913G85X59272Y-27913
G05
X58878Y-31614G85X59469Y-31614
G05
X59075Y-33819G85X59272Y-33819
G05
X58878Y-37520G85X59469Y-37520
G05
X59075Y-39724G85X59272Y-39724
G05
X58878Y-43425G85X59469Y-43425
G05
X61024Y-47382G85X61024Y-47579
G05
T12
X43071Y-53386G85X44331Y-53386
G05
X43728Y-54973G85X44619Y-54082
G05
X45315Y-55630G85X45315Y-54370
G05
X46011Y-54082G85X46902Y-54973
G05
X46299Y-53386G85X47559Y-53386
G05
T13
X44695Y-51614G85X45935Y-51614
G05
T0
M30
