  0
SECTION
  2
HEADER
  9
$ACADVER
  1
AC1009
  9
$DWGCODEPAGE
  3
ansi_1252
  9
$INSBASE
 10
0.0
 20
0.0
 30
0.0
  9
$EXTMIN
 10
-0.0000035433086741
 20
0.0
 30
0.0
  9
$EXTMAX
 10
60.6
 20
128.5000379180805
 30
28.64343820270521
  9
$LIMMIN
 10
0.0
 20
0.0
  9
$LIMMAX
 10
420.0
 20
297.0
  9
$ORTHOMODE
 70
     0
  9
$REGENMODE
 70
     1
  9
$FILLMODE
 70
     1
  9
$QTEXTMODE
 70
     0
  9
$MIRRTEXT
 70
     1
  9
$DRAGMODE
 70
     2
  9
$LTSCALE
 40
1.0
  9
$OSMODE
 70
    37
  9
$ATTMODE
 70
     1
  9
$TEXTSIZE
 40
2.5
  9
$TRACEWID
 40
1.0
  9
$TEXTSTYLE
  7
STANDARD
  9
$CLAYER
  8
0
  9
$CELTYPE
  6
BYLAYER
  9
$CECOLOR
 62
   256
  9
$DIMSCALE
 40
1.0
  9
$DIMASZ
 40
2.5
  9
$DIMEXO
 40
0.625
  9
$DIMDLI
 40
3.75
  9
$DIMRND
 40
0.0
  9
$DIMDLE
 40
0.0
  9
$DIMEXE
 40
1.25
  9
$DIMTP
 40
0.0
  9
$DIMTM
 40
0.0
  9
$DIMTXT
 40
2.5
  9
$DIMCEN
 40
2.5
  9
$DIMTSZ
 40
0.0
  9
$DIMTOL
 70
     0
  9
$DIMLIM
 70
     0
  9
$DIMTIH
 70
     0
  9
$DIMTOH
 70
     0
  9
$DIMSE1
 70
     0
  9
$DIMSE2
 70
     0
  9
$DIMTAD
 70
     1
  9
$DIMZIN
 70
     8
  9
$DIMBLK
  1

  9
$DIMASO
 70
     1
  9
$DIMSHO
 70
     1
  9
$DIMPOST
  1

  9
$DIMAPOST
  1

  9
$DIMALT
 70
     0
  9
$DIMALTD
 70
     3
  9
$DIMALTF
 40
0.03937007874016
  9
$DIMLFAC
 40
1.0
  9
$DIMTOFL
 70
     1
  9
$DIMTVP
 40
0.0
  9
$DIMTIX
 70
     0
  9
$DIMSOXD
 70
     0
  9
$DIMSAH
 70
     0
  9
$DIMBLK1
  1

  9
$DIMBLK2
  1

  9
$DIMSTYLE
  2
ISO-25
  9
$DIMCLRD
 70
     0
  9
$DIMCLRE
 70
     0
  9
$DIMCLRT
 70
     0
  9
$DIMTFAC
 40
1.0
  9
$DIMGAP
 40
0.625
  9
$LUNITS
 70
     2
  9
$LUPREC
 70
     4
  9
$SKETCHINC
 40
1.0
  9
$FILLETRAD
 40
10.0
  9
$AUNITS
 70
     0
  9
$AUPREC
 70
     0
  9
$MENU
  1
.
  9
$ELEVATION
 40
0.0
  9
$PELEVATION
 40
0.0
  9
$THICKNESS
 40
0.0
  9
$LIMCHECK
 70
     0
  9
$CHAMFERA
 40
0.0
  9
$CHAMFERB
 40
0.0
  9
$SKPOLY
 70
     0
  9
$TDCREATE
 40
2305814.587858796
  9
$TDUPDATE
 40
2457827.754528901
  9
$TDINDWG
 40
0.0000000116
  9
$TDUSRTIMER
 40
0.0000000116
  9
$USRTIMER
 70
     1
  9
$ANGBASE
 50
0.0
  9
$ANGDIR
 70
     0
  9
$PDMODE
 70
     0
  9
$PDSIZE
 40
0.0
  9
$PLINEWID
 40
0.0
  9
$COORDS
 70
     1
  9
$SPLFRAME
 70
     0
  9
$SPLINETYPE
 70
     6
  9
$SPLINESEGS
 70
     8
  9
$ATTDIA
 70
     0
  9
$ATTREQ
 70
     1
  9
$HANDLING
 70
     1
  9
$HANDSEED
  5
297
  9
$SURFTAB1
 70
     6
  9
$SURFTAB2
 70
     6
  9
$SURFTYPE
 70
     6
  9
$SURFU
 70
     6
  9
$SURFV
 70
     6
  9
$UCSNAME
  2

  9
$UCSORG
 10
0.0
 20
0.0
 30
0.0
  9
$UCSXDIR
 10
1.0
 20
0.0
 30
0.0
  9
$UCSYDIR
 10
0.0
 20
1.0
 30
0.0
  9
$PUCSNAME
  2

  9
$PUCSORG
 10
0.0
 20
0.0
 30
0.0
  9
$PUCSXDIR
 10
1.0
 20
0.0
 30
0.0
  9
$PUCSYDIR
 10
0.0
 20
1.0
 30
0.0
  9
$USERI1
 70
     0
  9
$USERI2
 70
     0
  9
$USERI3
 70
     0
  9
$USERI4
 70
     0
  9
$USERI5
 70
     0
  9
$USERR1
 40
0.0
  9
$USERR2
 40
0.0
  9
$USERR3
 40
0.0
  9
$USERR4
 40
0.0
  9
$USERR5
 40
0.0
  9
$WORLDVIEW
 70
     1
  9
$SHADEDGE
 70
     3
  9
$SHADEDIF
 70
    70
  9
$TILEMODE
 70
     1
  9
$MAXACTVP
 70
    64
  9
$PLIMCHECK
 70
     0
  9
$PEXTMIN
 10
1.000000000000000E+20
 20
1.000000000000000E+20
 30
1.000000000000000E+20
  9
$PEXTMAX
 10
-1.000000000000000E+20
 20
-1.000000000000000E+20
 30
-1.000000000000000E+20
  9
$PLIMMIN
 10
0.0
 20
0.0
  9
$PLIMMAX
 10
420.0
 20
297.0
  9
$UNITMODE
 70
     0
  9
$VISRETAIN
 70
     1
  9
$PLINEGEN
 70
     0
  9
$PSLTSCALE
 70
     1
  0
ENDSEC
  0
SECTION
  2
TABLES
  0
TABLE
  2
VPORT
 70
     1
  0
VPORT
  2
*ACTIVE
 70
     0
 10
0.0
 20
0.0
 11
1.0
 21
1.0
 12
30.29999822834566
 22
64.25001895904023
 13
0.0
 23
0.0
 14
10.0
 24
10.0
 15
10.0
 25
10.0
 16
0.0
 26
0.0
 36
1.0
 17
0.0
 27
0.0
 37
0.0
 40
131.0700386764421
 41
0.4715952191542658
 42
50.0
 43
0.0
 44
0.0
 50
0.0
 51
0.0
 71
     0
 72
   100
 73
     1
 74
     3
 75
     0
 76
     0
 77
     0
 78
     0
  0
ENDTAB
  0
TABLE
  2
LTYPE
 70
    11
  0
LTYPE
  2
CONTINUOUS
 70
     0
  3
Solid line
 72
    65
 73
     0
 40
0.0
  0
LTYPE
  2
BORDER
 70
     0
  3
__ __ . __ __ . __ 
 72
    65
 73
     6
 40
0.875
 49
0.25
 49
-0.125
 49
0.25
 49
-0.125
 49
0.0
 49
-0.125
  0
LTYPE
  2
CENTER
 70
     0
  3
___ _ ___ _ ___ _ _
 72
    65
 73
     4
 40
1.125
 49
0.75
 49
-0.125
 49
0.125
 49
-0.125
  0
LTYPE
  2
DASHDOT
 70
     0
  3
_._._._._._._._._._
 72
    65
 73
     4
 40
0.5
 49
0.25
 49
-0.125
 49
0.0
 49
-0.125
  0
LTYPE
  2
DASHED
 70
     0
  3
_ _ _ _ _ _ _ _ _ _
 72
    65
 73
     2
 40
0.375
 49
0.25
 49
-0.125
  0
LTYPE
  2
DIVIDE
 70
     0
  3
__..__..__..__..__.
 72
    65
 73
     6
 40
0.625
 49
0.25
 49
-0.125
 49
0.0
 49
-0.125
 49
0.0
 49
-0.125
  0
LTYPE
  2
DOT
 70
     0
  3
...................
 72
    65
 73
     2
 40
0.125
 49
0.0
 49
-0.125
  0
LTYPE
  2
HIDDEN
 70
     0
  3
__ __ __ __ __ __ _
 72
    65
 73
     2
 40
0.1875
 49
0.125
 49
-0.0625
  0
LTYPE
  2
PHANTOM
 70
     0
  3
___ _ _ ___ _ _ ___
 72
    65
 73
     6
 40
1.25
 49
0.625
 49
-0.125
 49
0.125
 49
-0.125
 49
0.125
 49
-0.125
  0
LTYPE
  2
CUTTING
 70
     0
  3
________ _ _ ______
 72
    65
 73
     6
 40
1.4675
 49
1.0
 49
-0.0725
 49
0.125
 49
-0.0725
 49
0.125
 49
-0.0725
  0
LTYPE
  2
STITCH
 70
     0
  3
_ _ _ _ _ _ _ _ _ _
 72
    65
 73
     2
 40
0.145
 49
0.0725
 49
-0.0725
  0
ENDTAB
  0
TABLE
  2
LAYER
 70
     2
  0
LAYER
  2
0
 70
     0
 62
     7
  6
CONTINUOUS
  0
LAYER
  2
LAYER1
 70
     0
 62
     7
  6
CONTINUOUS
  0
ENDTAB
  0
TABLE
  2
STYLE
 70
     1
  0
STYLE
  2
STANDARD
 70
     0
 40
0.0
 41
1.0
 50
0.0
 71
     0
 42
2.5
  3
txt
  4

  0
ENDTAB
  0
TABLE
  2
VIEW
 70
     0
  0
ENDTAB
  0
TABLE
  2
UCS
 70
     0
  0
ENDTAB
  0
TABLE
  2
APPID
 70
     2
  0
APPID
  2
ACAD
 70
     0
  0
APPID
  2
ENCORE_SOFTWARE_VIACAD
 70
     0
  0
ENDTAB
  0
TABLE
  2
DIMSTYLE
 70
     1
  0
DIMSTYLE
  2
ISO-25
 70
     0
  3

  4

  5

  6

  7

 40
1.0
 41
2.5
 42
0.625
 43
3.75
 44
1.25
 45
0.0
 46
0.0
 47
0.0
 48
0.0
140
2.5
141
2.5
142
0.0
143
0.03937007874016
144
1.0
145
0.0
146
1.0
147
0.625
 71
     0
 72
     0
 73
     0
 74
     0
 75
     0
 76
     0
 77
     1
 78
     8
170
     0
171
     3
172
     1
173
     0
174
     0
175
     0
176
     0
177
     0
178
     0
  0
ENDTAB
  0
ENDSEC
  0
SECTION
  2
BLOCKS
  0
BLOCK
  8
0
  2
$MODEL_SPACE
 70
     0
 10
0.0
 20
0.0
 30
0.0
  3
$MODEL_SPACE
  1

  0
ENDBLK
  5
21
  8
0
  0
BLOCK
 67
     1
  8
0
  2
$PAPER_SPACE
 70
     0
 10
0.0
 20
0.0
 30
0.0
  3
$PAPER_SPACE
  1

  0
ENDBLK
  5
1D
 67
     1
  8
0
  0
ENDSEC
  0
SECTION
  2
ENTITIES
  0
POLYLINE
  5
76
  8
LAYER1
 62
     7
 10
0.0
 20
0.0
 30
0.0
 66
     1
 70
     8
  0
VERTEX
  5
77
  8
LAYER1
 62
     7
 10
15.29999268534793
 20
108.7406211864483
 30
0.0
 70
    32
  0
VERTEX
  5
78
  8
LAYER1
 62
     7
 10
15.29999268534793
 20
106.7406218647055
 30
0.0
 70
    32
  0
VERTEX
  5
79
  8
LAYER1
 62
     7
 10
15.29999268534793
 20
106.7406218647055
 30
0.0
 70
    32
  0
VERTEX
  5
7A
  8
LAYER1
 62
     7
 10
15.29999268534793
 20
106.7406218647055
 30
0.0
 70
    32
  0
SEQEND
  5
7B
  8
LAYER1
 62
     7
  0
POLYLINE
  5
7C
  8
LAYER1
 62
     7
 10
0.0
 20
0.0
 30
0.0
 66
     1
 70
     8
  0
VERTEX
  5
7D
  8
LAYER1
 62
     7
 10
14.29999302447649
 20
107.7406215255769
 30
0.0
 70
    32
  0
VERTEX
  5
7E
  8
LAYER1
 62
     7
 10
16.29999234621939
 20
107.7406215255769
 30
0.0
 70
    32
  0
VERTEX
  5
7F
  8
LAYER1
 62
     7
 10
16.29999234621939
 20
107.7406215255769
 30
0.0
 70
    32
  0
VERTEX
  5
80
  8
LAYER1
 62
     7
 10
16.29999234621939
 20
107.7406215255769
 30
0.0
 70
    32
  0
SEQEND
  5
81
  8
LAYER1
 62
     7
  0
POLYLINE
  5
82
  8
LAYER1
 62
     7
 10
0.0
 20
0.0
 30
0.0
 66
     1
 70
     8
  0
VERTEX
  5
83
  8
LAYER1
 62
     7
 10
45.30337700120198
 20
108.7406211864483
 30
0.0
 70
    32
  0
VERTEX
  5
84
  8
LAYER1
 62
     7
 10
45.30337700120198
 20
106.7406218647055
 30
0.0
 70
    32
  0
VERTEX
  5
85
  8
LAYER1
 62
     7
 10
45.30337700120198
 20
106.7406218647055
 30
0.0
 70
    32
  0
VERTEX
  5
86
  8
LAYER1
 62
     7
 10
45.30337700120198
 20
106.7406218647055
 30
0.0
 70
    32
  0
SEQEND
  5
87
  8
LAYER1
 62
     7
  0
POLYLINE
  5
88
  8
LAYER1
 62
     7
 10
0.0
 20
0.0
 30
0.0
 66
     1
 70
     8
  0
VERTEX
  5
89
  8
LAYER1
 62
     7
 10
44.30337734033054
 20
107.7406215255769
 30
0.0
 70
    32
  0
VERTEX
  5
8A
  8
LAYER1
 62
     7
 10
46.30337666207346
 20
107.7406215255769
 30
0.0
 70
    32
  0
VERTEX
  5
8B
  8
LAYER1
 62
     7
 10
46.30337666207346
 20
107.7406215255769
 30
0.0
 70
    32
  0
VERTEX
  5
8C
  8
LAYER1
 62
     7
 10
46.30337666207346
 20
107.7406215255769
 30
0.0
 70
    32
  0
SEQEND
  5
8D
  8
LAYER1
 62
     7
  0
POLYLINE
  5
8E
  8
LAYER1
 62
     7
 10
0.0
 20
0.0
 30
0.0
 66
     1
 70
     8
  0
VERTEX
  5
8F
  8
LAYER1
 62
     7
 10
55.10000895182443
 20
95.37584196702991
 30
0.0
 70
    32
  0
VERTEX
  5
90
  8
LAYER1
 62
     7
 10
55.10000895182443
 20
93.37584264528698
 30
0.0
 70
    32
  0
VERTEX
  5
91
  8
LAYER1
 62
     7
 10
55.10000895182443
 20
93.37584264528698
 30
0.0
 70
    32
  0
VERTEX
  5
92
  8
LAYER1
 62
     7
 10
55.10000895182443
 20
93.37584264528698
 30
0.0
 70
    32
  0
SEQEND
  5
93
  8
LAYER1
 62
     7
  0
POLYLINE
  5
94
  8
LAYER1
 62
     7
 10
0.0
 20
0.0
 30
0.0
 66
     1
 70
     8
  0
VERTEX
  5
95
  8
LAYER1
 62
     7
 10
54.10000929095295
 20
94.37584230615845
 30
0.0
 70
    32
  0
VERTEX
  5
96
  8
LAYER1
 62
     7
 10
56.10000861269587
 20
94.37584230615845
 30
0.0
 70
    32
  0
VERTEX
  5
97
  8
LAYER1
 62
     7
 10
56.10000861269587
 20
94.37584230615845
 30
0.0
 70
    32
  0
VERTEX
  5
98
  8
LAYER1
 62
     7
 10
56.10000861269587
 20
94.37584230615845
 30
0.0
 70
    32
  0
SEQEND
  5
99
  8
LAYER1
 62
     7
  0
POLYLINE
  5
9A
  8
LAYER1
 62
     7
 10
0.0
 20
0.0
 30
0.0
 66
     1
 70
     8
  0
VERTEX
  5
9B
  8
LAYER1
 62
     7
 10
5.549997763505655
 20
95.37584196702991
 30
0.0
 70
    32
  0
VERTEX
  5
9C
  8
LAYER1
 62
     7
 10
5.549997763505655
 20
93.37584264528698
 30
0.0
 70
    32
  0
VERTEX
  5
9D
  8
LAYER1
 62
     7
 10
5.549997763505655
 20
93.37584264528698
 30
0.0
 70
    32
  0
VERTEX
  5
9E
  8
LAYER1
 62
     7
 10
5.549997763505655
 20
93.37584264528698
 30
0.0
 70
    32
  0
SEQEND
  5
9F
  8
LAYER1
 62
     7
  0
POLYLINE
  5
A0
  8
LAYER1
 62
     7
 10
0.0
 20
0.0
 30
0.0
 66
     1
 70
     8
  0
VERTEX
  5
A1
  8
LAYER1
 62
     7
 10
4.549998102634216
 20
94.37584230615845
 30
0.0
 70
    32
  0
VERTEX
  5
A2
  8
LAYER1
 62
     7
 10
6.549997424377115
 20
94.37584230615845
 30
0.0
 70
    32
  0
VERTEX
  5
A3
  8
LAYER1
 62
     7
 10
6.549997424377115
 20
94.37584230615845
 30
0.0
 70
    32
  0
VERTEX
  5
A4
  8
LAYER1
 62
     7
 10
6.549997424377115
 20
94.37584230615845
 30
0.0
 70
    32
  0
SEQEND
  5
A5
  8
LAYER1
 62
     7
  0
POLYLINE
  5
A6
  8
LAYER1
 62
     7
 10
0.0
 20
0.0
 30
0.0
 66
     1
 70
     8
  0
VERTEX
  5
A7
  8
LAYER1
 62
     7
 10
25.04999823711624
 20
99.08266016413015
 30
0.0
 70
    32
  0
VERTEX
  5
A8
  8
LAYER1
 62
     7
 10
25.04999823711624
 20
97.08266084238723
 30
0.0
 70
    32
  0
VERTEX
  5
A9
  8
LAYER1
 62
     7
 10
25.04999823711624
 20
97.08266084238723
 30
0.0
 70
    32
  0
VERTEX
  5
AA
  8
LAYER1
 62
     7
 10
25.04999823711624
 20
97.08266084238723
 30
0.0
 70
    32
  0
SEQEND
  5
AB
  8
LAYER1
 62
     7
  0
POLYLINE
  5
AC
  8
LAYER1
 62
     7
 10
0.0
 20
0.0
 30
0.0
 66
     1
 70
     8
  0
VERTEX
  5
AD
  8
LAYER1
 62
     7
 10
24.04999857624479
 20
98.08266050325864
 30
0.0
 70
    32
  0
VERTEX
  5
AE
  8
LAYER1
 62
     7
 10
26.05000144129635
 20
98.08266050325864
 30
0.0
 70
    32
  0
VERTEX
  5
AF
  8
LAYER1
 62
     7
 10
26.05000144129635
 20
98.08266050325864
 30
0.0
 70
    32
  0
VERTEX
  5
B0
  8
LAYER1
 62
     7
 10
26.05000144129635
 20
98.08266050325864
 30
0.0
 70
    32
  0
SEQEND
  5
B1
  8
LAYER1
 62
     7
  0
POLYLINE
  5
B2
  8
LAYER1
 62
     7
 10
0.0
 20
0.0
 30
0.0
 66
     1
 70
     8
  0
VERTEX
  5
B3
  8
LAYER1
 62
     7
 10
28.55000059347498
 20
99.08266016413015
 30
0.0
 70
    32
  0
VERTEX
  5
B4
  8
LAYER1
 62
     7
 10
28.55000059347498
 20
97.08266084238723
 30
0.0
 70
    32
  0
VERTEX
  5
B5
  8
LAYER1
 62
     7
 10
28.55000059347498
 20
97.08266084238723
 30
0.0
 70
    32
  0
VERTEX
  5
B6
  8
LAYER1
 62
     7
 10
28.55000059347498
 20
97.08266084238723
 30
0.0
 70
    32
  0
SEQEND
  5
B7
  8
LAYER1
 62
     7
  0
POLYLINE
  5
B8
  8
LAYER1
 62
     7
 10
0.0
 20
0.0
 30
0.0
 66
     1
 70
     8
  0
VERTEX
  5
B9
  8
LAYER1
 62
     7
 10
27.55000093260354
 20
98.08266050325864
 30
0.0
 70
    32
  0
VERTEX
  5
BA
  8
LAYER1
 62
     7
 10
29.55000025434642
 20
98.08266050325864
 30
0.0
 70
    32
  0
VERTEX
  5
BB
  8
LAYER1
 62
     7
 10
29.55000025434642
 20
98.08266050325864
 30
0.0
 70
    32
  0
VERTEX
  5
BC
  8
LAYER1
 62
     7
 10
29.55000025434642
 20
98.08266050325864
 30
0.0
 70
    32
  0
SEQEND
  5
BD
  8
LAYER1
 62
     7
  0
POLYLINE
  5
BE
  8
LAYER1
 62
     7
 10
0.0
 20
0.0
 30
0.0
 66
     1
 70
     8
  0
VERTEX
  5
BF
  8
LAYER1
 62
     7
 10
32.05000294983372
 20
99.08266016413015
 30
0.0
 70
    32
  0
VERTEX
  5
C0
  8
LAYER1
 62
     7
 10
32.05000294983372
 20
97.08266084238723
 30
0.0
 70
    32
  0
VERTEX
  5
C1
  8
LAYER1
 62
     7
 10
32.05000294983372
 20
97.08266084238723
 30
0.0
 70
    32
  0
VERTEX
  5
C2
  8
LAYER1
 62
     7
 10
32.05000294983372
 20
97.08266084238723
 30
0.0
 70
    32
  0
SEQEND
  5
C3
  8
LAYER1
 62
     7
  0
POLYLINE
  5
C4
  8
LAYER1
 62
     7
 10
0.0
 20
0.0
 30
0.0
 66
     1
 70
     8
  0
VERTEX
  5
C5
  8
LAYER1
 62
     7
 10
31.05000328896226
 20
98.08266050325864
 30
0.0
 70
    32
  0
VERTEX
  5
C6
  8
LAYER1
 62
     7
 10
33.05000261070518
 20
98.08266050325864
 30
0.0
 70
    32
  0
VERTEX
  5
C7
  8
LAYER1
 62
     7
 10
33.05000261070518
 20
98.08266050325864
 30
0.0
 70
    32
  0
VERTEX
  5
C8
  8
LAYER1
 62
     7
 10
33.05000261070518
 20
98.08266050325864
 30
0.0
 70
    32
  0
SEQEND
  5
C9
  8
LAYER1
 62
     7
  0
POLYLINE
  5
CA
  8
LAYER1
 62
     7
 10
0.0
 20
0.0
 30
0.0
 66
     1
 70
     8
  0
VERTEX
  5
CB
  8
LAYER1
 62
     7
 10
35.55000530619245
 20
99.08266016413015
 30
0.0
 70
    32
  0
VERTEX
  5
CC
  8
LAYER1
 62
     7
 10
35.55000530619245
 20
97.08266084238723
 30
0.0
 70
    32
  0
VERTEX
  5
CD
  8
LAYER1
 62
     7
 10
35.55000530619245
 20
97.08266084238723
 30
0.0
 70
    32
  0
VERTEX
  5
CE
  8
LAYER1
 62
     7
 10
35.55000530619245
 20
97.08266084238723
 30
0.0
 70
    32
  0
SEQEND
  5
CF
  8
LAYER1
 62
     7
  0
POLYLINE
  5
D0
  8
LAYER1
 62
     7
 10
0.0
 20
0.0
 30
0.0
 66
     1
 70
     8
  0
VERTEX
  5
D1
  8
LAYER1
 62
     7
 10
34.55000210201235
 20
98.08266050325864
 30
0.0
 70
    32
  0
VERTEX
  5
D2
  8
LAYER1
 62
     7
 10
36.55000496706391
 20
98.08266050325864
 30
0.0
 70
    32
  0
VERTEX
  5
D3
  8
LAYER1
 62
     7
 10
36.55000496706391
 20
98.08266050325864
 30
0.0
 70
    32
  0
VERTEX
  5
D4
  8
LAYER1
 62
     7
 10
36.55000496706391
 20
98.08266050325864
 30
0.0
 70
    32
  0
SEQEND
  5
D5
  8
LAYER1
 62
     7
  0
POLYLINE
  5
D6
  8
LAYER1
 62
     7
 10
0.0
 20
0.0
 30
0.0
 66
     1
 70
     8
  0
VERTEX
  5
D7
  8
LAYER1
 62
     7
 10
25.04999823711624
 20
95.58266135108006
 30
0.0
 70
    32
  0
VERTEX
  5
D8
  8
LAYER1
 62
     7
 10
25.04999823711624
 20
93.58265848602849
 30
0.0
 70
    32
  0
VERTEX
  5
D9
  8
LAYER1
 62
     7
 10
25.04999823711624
 20
93.58265848602849
 30
0.0
 70
    32
  0
VERTEX
  5
DA
  8
LAYER1
 62
     7
 10
25.04999823711624
 20
93.58265848602849
 30
0.0
 70
    32
  0
SEQEND
  5
DB
  8
LAYER1
 62
     7
  0
POLYLINE
  5
DC
  8
LAYER1
 62
     7
 10
0.0
 20
0.0
 30
0.0
 66
     1
 70
     8
  0
VERTEX
  5
DD
  8
LAYER1
 62
     7
 10
24.04999857624479
 20
94.58265814689992
 30
0.0
 70
    32
  0
VERTEX
  5
DE
  8
LAYER1
 62
     7
 10
26.05000144129635
 20
94.58265814689992
 30
0.0
 70
    32
  0
VERTEX
  5
DF
  8
LAYER1
 62
     7
 10
26.05000144129635
 20
94.58265814689992
 30
0.0
 70
    32
  0
VERTEX
  5
E0
  8
LAYER1
 62
     7
 10
26.05000144129635
 20
94.58265814689992
 30
0.0
 70
    32
  0
SEQEND
  5
E1
  8
LAYER1
 62
     7
  0
POLYLINE
  5
E2
  8
LAYER1
 62
     7
 10
0.0
 20
0.0
 30
0.0
 66
     1
 70
     8
  0
VERTEX
  5
E3
  8
LAYER1
 62
     7
 10
28.55000059347498
 20
95.58266135108006
 30
0.0
 70
    32
  0
VERTEX
  5
E4
  8
LAYER1
 62
     7
 10
28.55000059347498
 20
93.58265848602849
 30
0.0
 70
    32
  0
VERTEX
  5
E5
  8
LAYER1
 62
     7
 10
28.55000059347498
 20
93.58265848602849
 30
0.0
 70
    32
  0
VERTEX
  5
E6
  8
LAYER1
 62
     7
 10
28.55000059347498
 20
93.58265848602849
 30
0.0
 70
    32
  0
SEQEND
  5
E7
  8
LAYER1
 62
     7
  0
POLYLINE
  5
E8
  8
LAYER1
 62
     7
 10
0.0
 20
0.0
 30
0.0
 66
     1
 70
     8
  0
VERTEX
  5
E9
  8
LAYER1
 62
     7
 10
27.55000093260354
 20
94.58265814689992
 30
0.0
 70
    32
  0
VERTEX
  5
EA
  8
LAYER1
 62
     7
 10
29.55000025434642
 20
94.58265814689992
 30
0.0
 70
    32
  0
VERTEX
  5
EB
  8
LAYER1
 62
     7
 10
29.55000025434642
 20
94.58265814689992
 30
0.0
 70
    32
  0
VERTEX
  5
EC
  8
LAYER1
 62
     7
 10
29.55000025434642
 20
94.58265814689992
 30
0.0
 70
    32
  0
SEQEND
  5
ED
  8
LAYER1
 62
     7
  0
POLYLINE
  5
EE
  8
LAYER1
 62
     7
 10
0.0
 20
0.0
 30
0.0
 66
     1
 70
     8
  0
VERTEX
  5
EF
  8
LAYER1
 62
     7
 10
32.05000294983372
 20
95.58266135108006
 30
0.0
 70
    32
  0
VERTEX
  5
F0
  8
LAYER1
 62
     7
 10
32.05000294983372
 20
93.58265848602849
 30
0.0
 70
    32
  0
VERTEX
  5
F1
  8
LAYER1
 62
     7
 10
32.05000294983372
 20
93.58265848602849
 30
0.0
 70
    32
  0
VERTEX
  5
F2
  8
LAYER1
 62
     7
 10
32.05000294983372
 20
93.58265848602849
 30
0.0
 70
    32
  0
SEQEND
  5
F3
  8
LAYER1
 62
     7
  0
POLYLINE
  5
F4
  8
LAYER1
 62
     7
 10
0.0
 20
0.0
 30
0.0
 66
     1
 70
     8
  0
VERTEX
  5
F5
  8
LAYER1
 62
     7
 10
31.05000328896226
 20
94.58265814689992
 30
0.0
 70
    32
  0
VERTEX
  5
F6
  8
LAYER1
 62
     7
 10
33.05000261070518
 20
94.58265814689992
 30
0.0
 70
    32
  0
VERTEX
  5
F7
  8
LAYER1
 62
     7
 10
33.05000261070518
 20
94.58265814689992
 30
0.0
 70
    32
  0
VERTEX
  5
F8
  8
LAYER1
 62
     7
 10
33.05000261070518
 20
94.58265814689992
 30
0.0
 70
    32
  0
SEQEND
  5
F9
  8
LAYER1
 62
     7
  0
POLYLINE
  5
FA
  8
LAYER1
 62
     7
 10
0.0
 20
0.0
 30
0.0
 66
     1
 70
     8
  0
VERTEX
  5
FB
  8
LAYER1
 62
     7
 10
35.55000530619245
 20
95.58266135108006
 30
0.0
 70
    32
  0
VERTEX
  5
FC
  8
LAYER1
 62
     7
 10
35.55000530619245
 20
93.58265848602849
 30
0.0
 70
    32
  0
VERTEX
  5
FD
  8
LAYER1
 62
     7
 10
35.55000530619245
 20
93.58265848602849
 30
0.0
 70
    32
  0
VERTEX
  5
FE
  8
LAYER1
 62
     7
 10
35.55000530619245
 20
93.58265848602849
 30
0.0
 70
    32
  0
SEQEND
  5
FF
  8
LAYER1
 62
     7
  0
POLYLINE
  5
100
  8
LAYER1
 62
     7
 10
0.0
 20
0.0
 30
0.0
 66
     1
 70
     8
  0
VERTEX
  5
101
  8
LAYER1
 62
     7
 10
34.55000210201235
 20
94.58265814689992
 30
0.0
 70
    32
  0
VERTEX
  5
102
  8
LAYER1
 62
     7
 10
36.55000496706391
 20
94.58265814689992
 30
0.0
 70
    32
  0
VERTEX
  5
103
  8
LAYER1
 62
     7
 10
36.55000496706391
 20
94.58265814689992
 30
0.0
 70
    32
  0
VERTEX
  5
104
  8
LAYER1
 62
     7
 10
36.55000496706391
 20
94.58265814689992
 30
0.0
 70
    32
  0
SEQEND
  5
105
  8
LAYER1
 62
     7
  0
POLYLINE
  5
106
  8
LAYER1
 62
     7
 10
0.0
 20
0.0
 30
0.0
 66
     1
 70
     8
  0
VERTEX
  5
107
  8
LAYER1
 62
     7
 10
25.04999823711624
 20
92.08265899472129
 30
0.0
 70
    32
  0
VERTEX
  5
108
  8
LAYER1
 62
     7
 10
25.04999823711624
 20
90.08265612966977
 30
0.0
 70
    32
  0
VERTEX
  5
109
  8
LAYER1
 62
     7
 10
25.04999823711624
 20
90.08265612966977
 30
0.0
 70
    32
  0
VERTEX
  5
10A
  8
LAYER1
 62
     7
 10
25.04999823711624
 20
90.08265612966977
 30
0.0
 70
    32
  0
SEQEND
  5
10B
  8
LAYER1
 62
     7
  0
POLYLINE
  5
10C
  8
LAYER1
 62
     7
 10
0.0
 20
0.0
 30
0.0
 66
     1
 70
     8
  0
VERTEX
  5
10D
  8
LAYER1
 62
     7
 10
24.04999857624479
 20
91.08265933384986
 30
0.0
 70
    32
  0
VERTEX
  5
10E
  8
LAYER1
 62
     7
 10
26.05000144129635
 20
91.08265933384986
 30
0.0
 70
    32
  0
VERTEX
  5
10F
  8
LAYER1
 62
     7
 10
26.05000144129635
 20
91.08265933384986
 30
0.0
 70
    32
  0
VERTEX
  5
110
  8
LAYER1
 62
     7
 10
26.05000144129635
 20
91.08265933384986
 30
0.0
 70
    32
  0
SEQEND
  5
111
  8
LAYER1
 62
     7
  0
POLYLINE
  5
112
  8
LAYER1
 62
     7
 10
0.0
 20
0.0
 30
0.0
 66
     1
 70
     8
  0
VERTEX
  5
113
  8
LAYER1
 62
     7
 10
28.55000059347498
 20
92.08265899472129
 30
0.0
 70
    32
  0
VERTEX
  5
114
  8
LAYER1
 62
     7
 10
28.55000059347498
 20
90.08265612966977
 30
0.0
 70
    32
  0
VERTEX
  5
115
  8
LAYER1
 62
     7
 10
28.55000059347498
 20
90.08265612966977
 30
0.0
 70
    32
  0
VERTEX
  5
116
  8
LAYER1
 62
     7
 10
28.55000059347498
 20
90.08265612966977
 30
0.0
 70
    32
  0
SEQEND
  5
117
  8
LAYER1
 62
     7
  0
POLYLINE
  5
118
  8
LAYER1
 62
     7
 10
0.0
 20
0.0
 30
0.0
 66
     1
 70
     8
  0
VERTEX
  5
119
  8
LAYER1
 62
     7
 10
27.55000093260354
 20
91.08265933384986
 30
0.0
 70
    32
  0
VERTEX
  5
11A
  8
LAYER1
 62
     7
 10
29.55000025434642
 20
91.08265933384986
 30
0.0
 70
    32
  0
VERTEX
  5
11B
  8
LAYER1
 62
     7
 10
29.55000025434642
 20
91.08265933384986
 30
0.0
 70
    32
  0
VERTEX
  5
11C
  8
LAYER1
 62
     7
 10
29.55000025434642
 20
91.08265933384986
 30
0.0
 70
    32
  0
SEQEND
  5
11D
  8
LAYER1
 62
     7
  0
POLYLINE
  5
11E
  8
LAYER1
 62
     7
 10
0.0
 20
0.0
 30
0.0
 66
     1
 70
     8
  0
VERTEX
  5
11F
  8
LAYER1
 62
     7
 10
32.05000294983372
 20
92.08265899472129
 30
0.0
 70
    32
  0
VERTEX
  5
120
  8
LAYER1
 62
     7
 10
32.05000294983372
 20
90.08265612966977
 30
0.0
 70
    32
  0
VERTEX
  5
121
  8
LAYER1
 62
     7
 10
32.05000294983372
 20
90.08265612966977
 30
0.0
 70
    32
  0
VERTEX
  5
122
  8
LAYER1
 62
     7
 10
32.05000294983372
 20
90.08265612966977
 30
0.0
 70
    32
  0
SEQEND
  5
123
  8
LAYER1
 62
     7
  0
POLYLINE
  5
124
  8
LAYER1
 62
     7
 10
0.0
 20
0.0
 30
0.0
 66
     1
 70
     8
  0
VERTEX
  5
125
  8
LAYER1
 62
     7
 10
31.05000328896226
 20
91.08265933384986
 30
0.0
 70
    32
  0
VERTEX
  5
126
  8
LAYER1
 62
     7
 10
33.05000261070518
 20
91.08265933384986
 30
0.0
 70
    32
  0
VERTEX
  5
127
  8
LAYER1
 62
     7
 10
33.05000261070518
 20
91.08265933384986
 30
0.0
 70
    32
  0
VERTEX
  5
128
  8
LAYER1
 62
     7
 10
33.05000261070518
 20
91.08265933384986
 30
0.0
 70
    32
  0
SEQEND
  5
129
  8
LAYER1
 62
     7
  0
POLYLINE
  5
12A
  8
LAYER1
 62
     7
 10
0.0
 20
0.0
 30
0.0
 66
     1
 70
     8
  0
VERTEX
  5
12B
  8
LAYER1
 62
     7
 10
35.55000530619245
 20
92.08265899472129
 30
0.0
 70
    32
  0
VERTEX
  5
12C
  8
LAYER1
 62
     7
 10
35.55000530619245
 20
90.08265612966977
 30
0.0
 70
    32
  0
VERTEX
  5
12D
  8
LAYER1
 62
     7
 10
35.55000530619245
 20
90.08265612966977
 30
0.0
 70
    32
  0
VERTEX
  5
12E
  8
LAYER1
 62
     7
 10
35.55000530619245
 20
90.08265612966977
 30
0.0
 70
    32
  0
SEQEND
  5
12F
  8
LAYER1
 62
     7
  0
POLYLINE
  5
130
  8
LAYER1
 62
     7
 10
0.0
 20
0.0
 30
0.0
 66
     1
 70
     8
  0
VERTEX
  5
131
  8
LAYER1
 62
     7
 10
34.55000210201235
 20
91.08265933384986
 30
0.0
 70
    32
  0
VERTEX
  5
132
  8
LAYER1
 62
     7
 10
36.55000496706391
 20
91.08265933384986
 30
0.0
 70
    32
  0
VERTEX
  5
133
  8
LAYER1
 62
     7
 10
36.55000496706391
 20
91.08265933384986
 30
0.0
 70
    32
  0
VERTEX
  5
134
  8
LAYER1
 62
     7
 10
36.55000496706391
 20
91.08265933384986
 30
0.0
 70
    32
  0
SEQEND
  5
135
  8
LAYER1
 62
     7
  0
POLYLINE
  5
136
  8
LAYER1
 62
     7
 10
0.0
 20
0.0
 30
0.0
 66
     1
 70
     8
  0
VERTEX
  5
137
  8
LAYER1
 62
     7
 10
6.799992024631964
 20
80.37583642403212
 30
0.0
 70
    32
  0
VERTEX
  5
138
  8
LAYER1
 62
     7
 10
6.799992024631964
 20
78.3758335589806
 30
0.0
 70
    32
  0
VERTEX
  5
139
  8
LAYER1
 62
     7
 10
6.799992024631964
 20
78.3758335589806
 30
0.0
 70
    32
  0
VERTEX
  5
13A
  8
LAYER1
 62
     7
 10
6.799992024631964
 20
78.3758335589806
 30
0.0
 70
    32
  0
SEQEND
  5
13B
  8
LAYER1
 62
     7
  0
POLYLINE
  5
13C
  8
LAYER1
 62
     7
 10
0.0
 20
0.0
 30
0.0
 66
     1
 70
     8
  0
VERTEX
  5
13D
  8
LAYER1
 62
     7
 10
5.79998882045184
 20
79.37583321985203
 30
0.0
 70
    32
  0
VERTEX
  5
13E
  8
LAYER1
 62
     7
 10
7.799991685503402
 20
79.37583321985203
 30
0.0
 70
    32
  0
VERTEX
  5
13F
  8
LAYER1
 62
     7
 10
7.799991685503402
 20
79.37583321985203
 30
0.0
 70
    32
  0
VERTEX
  5
140
  8
LAYER1
 62
     7
 10
7.799991685503402
 20
79.37583321985203
 30
0.0
 70
    32
  0
SEQEND
  5
141
  8
LAYER1
 62
     7
  0
POLYLINE
  5
142
  8
LAYER1
 62
     7
 10
0.0
 20
0.0
 30
0.0
 66
     1
 70
     8
  0
VERTEX
  5
143
  8
LAYER1
 62
     7
 10
15.29999268534793
 20
80.37582579410616
 30
0.0
 70
    32
  0
VERTEX
  5
144
  8
LAYER1
 62
     7
 10
15.29999268534793
 20
78.37582647236323
 30
0.0
 70
    32
  0
VERTEX
  5
145
  8
LAYER1
 62
     7
 10
15.29999268534793
 20
78.37582647236323
 30
0.0
 70
    32
  0
VERTEX
  5
146
  8
LAYER1
 62
     7
 10
15.29999268534793
 20
78.37582647236323
 30
0.0
 70
    32
  0
SEQEND
  5
147
  8
LAYER1
 62
     7
  0
POLYLINE
  5
148
  8
LAYER1
 62
     7
 10
0.0
 20
0.0
 30
0.0
 66
     1
 70
     8
  0
VERTEX
  5
149
  8
LAYER1
 62
     7
 10
14.29999302447649
 20
79.37582613323465
 30
0.0
 70
    32
  0
VERTEX
  5
14A
  8
LAYER1
 62
     7
 10
16.29999234621939
 20
79.37582613323465
 30
0.0
 70
    32
  0
VERTEX
  5
14B
  8
LAYER1
 62
     7
 10
16.29999234621939
 20
79.37582613323465
 30
0.0
 70
    32
  0
VERTEX
  5
14C
  8
LAYER1
 62
     7
 10
16.29999234621939
 20
79.37582613323465
 30
0.0
 70
    32
  0
SEQEND
  5
14D
  8
LAYER1
 62
     7
  0
POLYLINE
  5
14E
  8
LAYER1
 62
     7
 10
0.0
 20
0.0
 30
0.0
 66
     1
 70
     8
  0
VERTEX
  5
14F
  8
LAYER1
 62
     7
 10
30.30000177165434
 20
80.37582579410616
 30
0.0
 70
    32
  0
VERTEX
  5
150
  8
LAYER1
 62
     7
 10
30.30000177165434
 20
78.37582647236323
 30
0.0
 70
    32
  0
VERTEX
  5
151
  8
LAYER1
 62
     7
 10
30.30000177165434
 20
78.37582647236323
 30
0.0
 70
    32
  0
VERTEX
  5
152
  8
LAYER1
 62
     7
 10
30.30000177165434
 20
78.37582647236323
 30
0.0
 70
    32
  0
SEQEND
  5
153
  8
LAYER1
 62
     7
  0
POLYLINE
  5
154
  8
LAYER1
 62
     7
 10
0.0
 20
0.0
 30
0.0
 66
     1
 70
     8
  0
VERTEX
  5
155
  8
LAYER1
 62
     7
 10
29.29999856747422
 20
79.37582613323465
 30
0.0
 70
    32
  0
VERTEX
  5
156
  8
LAYER1
 62
     7
 10
31.30000143252578
 20
79.37582613323465
 30
0.0
 70
    32
  0
VERTEX
  5
157
  8
LAYER1
 62
     7
 10
31.30000143252578
 20
79.37582613323465
 30
0.0
 70
    32
  0
VERTEX
  5
158
  8
LAYER1
 62
     7
 10
31.30000143252578
 20
79.37582613323465
 30
0.0
 70
    32
  0
SEQEND
  5
159
  8
LAYER1
 62
     7
  0
POLYLINE
  5
15A
  8
LAYER1
 62
     7
 10
0.0
 20
0.0
 30
0.0
 66
     1
 70
     8
  0
VERTEX
  5
15B
  8
LAYER1
 62
     7
 10
45.30337700120198
 20
80.37582579410616
 30
0.0
 70
    32
  0
VERTEX
  5
15C
  8
LAYER1
 62
     7
 10
45.30337700120198
 20
78.37582647236323
 30
0.0
 70
    32
  0
VERTEX
  5
15D
  8
LAYER1
 62
     7
 10
45.30337700120198
 20
78.37582647236323
 30
0.0
 70
    32
  0
VERTEX
  5
15E
  8
LAYER1
 62
     7
 10
45.30337700120198
 20
78.37582647236323
 30
0.0
 70
    32
  0
SEQEND
  5
15F
  8
LAYER1
 62
     7
  0
POLYLINE
  5
160
  8
LAYER1
 62
     7
 10
0.0
 20
0.0
 30
0.0
 66
     1
 70
     8
  0
VERTEX
  5
161
  8
LAYER1
 62
     7
 10
44.30337734033054
 20
79.37582613323465
 30
0.0
 70
    32
  0
VERTEX
  5
162
  8
LAYER1
 62
     7
 10
46.30337666207346
 20
79.37582613323465
 30
0.0
 70
    32
  0
VERTEX
  5
163
  8
LAYER1
 62
     7
 10
46.30337666207346
 20
79.37582613323465
 30
0.0
 70
    32
  0
VERTEX
  5
164
  8
LAYER1
 62
     7
 10
46.30337666207346
 20
79.37582613323465
 30
0.0
 70
    32
  0
SEQEND
  5
165
  8
LAYER1
 62
     7
  0
POLYLINE
  5
166
  8
LAYER1
 62
     7
 10
0.0
 20
0.0
 30
0.0
 66
     1
 70
     8
  0
VERTEX
  5
167
  8
LAYER1
 62
     7
 10
55.10001249513309
 20
80.37582579410616
 30
0.0
 70
    32
  0
VERTEX
  5
168
  8
LAYER1
 62
     7
 10
55.10001249513309
 20
78.37582647236323
 30
0.0
 70
    32
  0
VERTEX
  5
169
  8
LAYER1
 62
     7
 10
55.10001249513309
 20
78.37582647236323
 30
0.0
 70
    32
  0
VERTEX
  5
16A
  8
LAYER1
 62
     7
 10
55.10001249513309
 20
78.37582647236323
 30
0.0
 70
    32
  0
SEQEND
  5
16B
  8
LAYER1
 62
     7
  0
POLYLINE
  5
16C
  8
LAYER1
 62
     7
 10
0.0
 20
0.0
 30
0.0
 66
     1
 70
     8
  0
VERTEX
  5
16D
  8
LAYER1
 62
     7
 10
54.10001283426165
 20
79.37582613323465
 30
0.0
 70
    32
  0
VERTEX
  5
16E
  8
LAYER1
 62
     7
 10
56.10001215600455
 20
79.37582613323465
 30
0.0
 70
    32
  0
VERTEX
  5
16F
  8
LAYER1
 62
     7
 10
56.10001215600455
 20
79.37582613323465
 30
0.0
 70
    32
  0
VERTEX
  5
170
  8
LAYER1
 62
     7
 10
56.10001215600455
 20
79.37582613323465
 30
0.0
 70
    32
  0
SEQEND
  5
171
  8
LAYER1
 62
     7
  0
POLYLINE
  5
172
  8
LAYER1
 62
     7
 10
0.0
 20
0.0
 30
0.0
 66
     1
 70
     8
  0
VERTEX
  5
173
  8
LAYER1
 62
     7
 10
6.799992024631964
 20
65.37581316449105
 30
0.0
 70
    32
  0
VERTEX
  5
174
  8
LAYER1
 62
     7
 10
6.799992024631964
 20
63.37581384274812
 30
0.0
 70
    32
  0
VERTEX
  5
175
  8
LAYER1
 62
     7
 10
6.799992024631964
 20
63.37581384274812
 30
0.0
 70
    32
  0
VERTEX
  5
176
  8
LAYER1
 62
     7
 10
6.799992024631964
 20
63.37581384274812
 30
0.0
 70
    32
  0
SEQEND
  5
177
  8
LAYER1
 62
     7
  0
POLYLINE
  5
178
  8
LAYER1
 62
     7
 10
0.0
 20
0.0
 30
0.0
 66
     1
 70
     8
  0
VERTEX
  5
179
  8
LAYER1
 62
     7
 10
5.79998882045184
 20
64.37581350361961
 30
0.0
 70
    32
  0
VERTEX
  5
17A
  8
LAYER1
 62
     7
 10
7.799991685503402
 20
64.37581350361961
 30
0.0
 70
    32
  0
VERTEX
  5
17B
  8
LAYER1
 62
     7
 10
7.799991685503402
 20
64.37581350361961
 30
0.0
 70
    32
  0
VERTEX
  5
17C
  8
LAYER1
 62
     7
 10
7.799991685503402
 20
64.37581350361961
 30
0.0
 70
    32
  0
SEQEND
  5
17D
  8
LAYER1
 62
     7
  0
POLYLINE
  5
17E
  8
LAYER1
 62
     7
 10
0.0
 20
0.0
 30
0.0
 66
     1
 70
     8
  0
VERTEX
  5
17F
  8
LAYER1
 62
     7
 10
15.29999268534793
 20
65.37580607787365
 30
0.0
 70
    32
  0
VERTEX
  5
180
  8
LAYER1
 62
     7
 10
15.29999268534793
 20
63.37580321282211
 30
0.0
 70
    32
  0
VERTEX
  5
181
  8
LAYER1
 62
     7
 10
15.29999268534793
 20
63.37580321282211
 30
0.0
 70
    32
  0
VERTEX
  5
182
  8
LAYER1
 62
     7
 10
15.29999268534793
 20
63.37580321282211
 30
0.0
 70
    32
  0
SEQEND
  5
183
  8
LAYER1
 62
     7
  0
POLYLINE
  5
184
  8
LAYER1
 62
     7
 10
0.0
 20
0.0
 30
0.0
 66
     1
 70
     8
  0
VERTEX
  5
185
  8
LAYER1
 62
     7
 10
14.29999302447649
 20
64.37580641700221
 30
0.0
 70
    32
  0
VERTEX
  5
186
  8
LAYER1
 62
     7
 10
16.29999234621939
 20
64.37580641700221
 30
0.0
 70
    32
  0
VERTEX
  5
187
  8
LAYER1
 62
     7
 10
16.29999234621939
 20
64.37580641700221
 30
0.0
 70
    32
  0
VERTEX
  5
188
  8
LAYER1
 62
     7
 10
16.29999234621939
 20
64.37580641700221
 30
0.0
 70
    32
  0
SEQEND
  5
189
  8
LAYER1
 62
     7
  0
POLYLINE
  5
18A
  8
LAYER1
 62
     7
 10
0.0
 20
0.0
 30
0.0
 66
     1
 70
     8
  0
VERTEX
  5
18B
  8
LAYER1
 62
     7
 10
30.30000177165434
 20
65.37580607787365
 30
0.0
 70
    32
  0
VERTEX
  5
18C
  8
LAYER1
 62
     7
 10
30.30000177165434
 20
63.37580321282211
 30
0.0
 70
    32
  0
VERTEX
  5
18D
  8
LAYER1
 62
     7
 10
30.30000177165434
 20
63.37580321282211
 30
0.0
 70
    32
  0
VERTEX
  5
18E
  8
LAYER1
 62
     7
 10
30.30000177165434
 20
63.37580321282211
 30
0.0
 70
    32
  0
SEQEND
  5
18F
  8
LAYER1
 62
     7
  0
POLYLINE
  5
190
  8
LAYER1
 62
     7
 10
0.0
 20
0.0
 30
0.0
 66
     1
 70
     8
  0
VERTEX
  5
191
  8
LAYER1
 62
     7
 10
29.29999856747422
 20
64.37580641700221
 30
0.0
 70
    32
  0
VERTEX
  5
192
  8
LAYER1
 62
     7
 10
31.30000143252578
 20
64.37580641700221
 30
0.0
 70
    32
  0
VERTEX
  5
193
  8
LAYER1
 62
     7
 10
31.30000143252578
 20
64.37580641700221
 30
0.0
 70
    32
  0
VERTEX
  5
194
  8
LAYER1
 62
     7
 10
31.30000143252578
 20
64.37580641700221
 30
0.0
 70
    32
  0
SEQEND
  5
195
  8
LAYER1
 62
     7
  0
POLYLINE
  5
196
  8
LAYER1
 62
     7
 10
0.0
 20
0.0
 30
0.0
 66
     1
 70
     8
  0
VERTEX
  5
197
  8
LAYER1
 62
     7
 10
45.30337700120198
 20
65.37580607787365
 30
0.0
 70
    32
  0
VERTEX
  5
198
  8
LAYER1
 62
     7
 10
45.30337700120198
 20
63.37580321282211
 30
0.0
 70
    32
  0
VERTEX
  5
199
  8
LAYER1
 62
     7
 10
45.30337700120198
 20
63.37580321282211
 30
0.0
 70
    32
  0
VERTEX
  5
19A
  8
LAYER1
 62
     7
 10
45.30337700120198
 20
63.37580321282211
 30
0.0
 70
    32
  0
SEQEND
  5
19B
  8
LAYER1
 62
     7
  0
POLYLINE
  5
19C
  8
LAYER1
 62
     7
 10
0.0
 20
0.0
 30
0.0
 66
     1
 70
     8
  0
VERTEX
  5
19D
  8
LAYER1
 62
     7
 10
44.30337734033054
 20
64.37580641700221
 30
0.0
 70
    32
  0
VERTEX
  5
19E
  8
LAYER1
 62
     7
 10
46.30337666207346
 20
64.37580641700221
 30
0.0
 70
    32
  0
VERTEX
  5
19F
  8
LAYER1
 62
     7
 10
46.30337666207346
 20
64.37580641700221
 30
0.0
 70
    32
  0
VERTEX
  5
1A0
  8
LAYER1
 62
     7
 10
46.30337666207346
 20
64.37580641700221
 30
0.0
 70
    32
  0
SEQEND
  5
1A1
  8
LAYER1
 62
     7
  0
POLYLINE
  5
1A2
  8
LAYER1
 62
     7
 10
0.0
 20
0.0
 30
0.0
 66
     1
 70
     8
  0
VERTEX
  5
1A3
  8
LAYER1
 62
     7
 10
55.10001249513309
 20
65.37580607787365
 30
0.0
 70
    32
  0
VERTEX
  5
1A4
  8
LAYER1
 62
     7
 10
55.10001249513309
 20
63.37580321282211
 30
0.0
 70
    32
  0
VERTEX
  5
1A5
  8
LAYER1
 62
     7
 10
55.10001249513309
 20
63.37580321282211
 30
0.0
 70
    32
  0
VERTEX
  5
1A6
  8
LAYER1
 62
     7
 10
55.10001249513309
 20
63.37580321282211
 30
0.0
 70
    32
  0
SEQEND
  5
1A7
  8
LAYER1
 62
     7
  0
POLYLINE
  5
1A8
  8
LAYER1
 62
     7
 10
0.0
 20
0.0
 30
0.0
 66
     1
 70
     8
  0
VERTEX
  5
1A9
  8
LAYER1
 62
     7
 10
54.10001283426165
 20
64.37580641700221
 30
0.0
 70
    32
  0
VERTEX
  5
1AA
  8
LAYER1
 62
     7
 10
56.10001215600455
 20
64.37580641700221
 30
0.0
 70
    32
  0
VERTEX
  5
1AB
  8
LAYER1
 62
     7
 10
56.10001215600455
 20
64.37580641700221
 30
0.0
 70
    32
  0
VERTEX
  5
1AC
  8
LAYER1
 62
     7
 10
56.10001215600455
 20
64.37580641700221
 30
0.0
 70
    32
  0
SEQEND
  5
1AD
  8
LAYER1
 62
     7
  0
POLYLINE
  5
1AE
  8
LAYER1
 62
     7
 10
0.0
 20
0.0
 30
0.0
 66
     1
 70
     8
  0
VERTEX
  5
1AF
  8
LAYER1
 62
     7
 10
6.799992024631964
 20
50.37580762149328
 30
0.0
 70
    32
  0
VERTEX
  5
1B0
  8
LAYER1
 62
     7
 10
6.799992024631964
 20
48.37580475644172
 30
0.0
 70
    32
  0
VERTEX
  5
1B1
  8
LAYER1
 62
     7
 10
6.799992024631964
 20
48.37580475644172
 30
0.0
 70
    32
  0
VERTEX
  5
1B2
  8
LAYER1
 62
     7
 10
6.799992024631964
 20
48.37580475644172
 30
0.0
 70
    32
  0
SEQEND
  5
1B3
  8
LAYER1
 62
     7
  0
POLYLINE
  5
1B4
  8
LAYER1
 62
     7
 10
0.0
 20
0.0
 30
0.0
 66
     1
 70
     8
  0
VERTEX
  5
1B5
  8
LAYER1
 62
     7
 10
5.79998882045184
 20
49.37580796062184
 30
0.0
 70
    32
  0
VERTEX
  5
1B6
  8
LAYER1
 62
     7
 10
7.799991685503402
 20
49.37580796062184
 30
0.0
 70
    32
  0
VERTEX
  5
1B7
  8
LAYER1
 62
     7
 10
7.799991685503402
 20
49.37580796062184
 30
0.0
 70
    32
  0
VERTEX
  5
1B8
  8
LAYER1
 62
     7
 10
7.799991685503402
 20
49.37580796062184
 30
0.0
 70
    32
  0
SEQEND
  5
1B9
  8
LAYER1
 62
     7
  0
POLYLINE
  5
1BA
  8
LAYER1
 62
     7
 10
0.0
 20
0.0
 30
0.0
 66
     1
 70
     8
  0
VERTEX
  5
1BB
  8
LAYER1
 62
     7
 10
15.29999268534793
 20
50.37580053487596
 30
0.0
 70
    32
  0
VERTEX
  5
1BC
  8
LAYER1
 62
     7
 10
15.29999268534793
 20
48.37579766982439
 30
0.0
 70
    32
  0
VERTEX
  5
1BD
  8
LAYER1
 62
     7
 10
15.29999268534793
 20
48.37579766982439
 30
0.0
 70
    32
  0
VERTEX
  5
1BE
  8
LAYER1
 62
     7
 10
15.29999268534793
 20
48.37579766982439
 30
0.0
 70
    32
  0
SEQEND
  5
1BF
  8
LAYER1
 62
     7
  0
POLYLINE
  5
1C0
  8
LAYER1
 62
     7
 10
0.0
 20
0.0
 30
0.0
 66
     1
 70
     8
  0
VERTEX
  5
1C1
  8
LAYER1
 62
     7
 10
14.29999302447649
 20
49.37579733069583
 30
0.0
 70
    32
  0
VERTEX
  5
1C2
  8
LAYER1
 62
     7
 10
16.29999234621939
 20
49.37579733069583
 30
0.0
 70
    32
  0
VERTEX
  5
1C3
  8
LAYER1
 62
     7
 10
16.29999234621939
 20
49.37579733069583
 30
0.0
 70
    32
  0
VERTEX
  5
1C4
  8
LAYER1
 62
     7
 10
16.29999234621939
 20
49.37579733069583
 30
0.0
 70
    32
  0
SEQEND
  5
1C5
  8
LAYER1
 62
     7
  0
POLYLINE
  5
1C6
  8
LAYER1
 62
     7
 10
0.0
 20
0.0
 30
0.0
 66
     1
 70
     8
  0
VERTEX
  5
1C7
  8
LAYER1
 62
     7
 10
30.30000177165434
 20
50.37580053487596
 30
0.0
 70
    32
  0
VERTEX
  5
1C8
  8
LAYER1
 62
     7
 10
30.30000177165434
 20
48.37579766982439
 30
0.0
 70
    32
  0
VERTEX
  5
1C9
  8
LAYER1
 62
     7
 10
30.30000177165434
 20
48.37579766982439
 30
0.0
 70
    32
  0
VERTEX
  5
1CA
  8
LAYER1
 62
     7
 10
30.30000177165434
 20
48.37579766982439
 30
0.0
 70
    32
  0
SEQEND
  5
1CB
  8
LAYER1
 62
     7
  0
POLYLINE
  5
1CC
  8
LAYER1
 62
     7
 10
0.0
 20
0.0
 30
0.0
 66
     1
 70
     8
  0
VERTEX
  5
1CD
  8
LAYER1
 62
     7
 10
29.29999856747422
 20
49.37579733069583
 30
0.0
 70
    32
  0
VERTEX
  5
1CE
  8
LAYER1
 62
     7
 10
31.30000143252578
 20
49.37579733069583
 30
0.0
 70
    32
  0
VERTEX
  5
1CF
  8
LAYER1
 62
     7
 10
31.30000143252578
 20
49.37579733069583
 30
0.0
 70
    32
  0
VERTEX
  5
1D0
  8
LAYER1
 62
     7
 10
31.30000143252578
 20
49.37579733069583
 30
0.0
 70
    32
  0
SEQEND
  5
1D1
  8
LAYER1
 62
     7
  0
POLYLINE
  5
1D2
  8
LAYER1
 62
     7
 10
0.0
 20
0.0
 30
0.0
 66
     1
 70
     8
  0
VERTEX
  5
1D3
  8
LAYER1
 62
     7
 10
45.30337700120198
 20
50.37580053487596
 30
0.0
 70
    32
  0
VERTEX
  5
1D4
  8
LAYER1
 62
     7
 10
45.30337700120198
 20
48.37579766982439
 30
0.0
 70
    32
  0
VERTEX
  5
1D5
  8
LAYER1
 62
     7
 10
45.30337700120198
 20
48.37579766982439
 30
0.0
 70
    32
  0
VERTEX
  5
1D6
  8
LAYER1
 62
     7
 10
45.30337700120198
 20
48.37579766982439
 30
0.0
 70
    32
  0
SEQEND
  5
1D7
  8
LAYER1
 62
     7
  0
POLYLINE
  5
1D8
  8
LAYER1
 62
     7
 10
0.0
 20
0.0
 30
0.0
 66
     1
 70
     8
  0
VERTEX
  5
1D9
  8
LAYER1
 62
     7
 10
44.30337734033054
 20
49.37579733069583
 30
0.0
 70
    32
  0
VERTEX
  5
1DA
  8
LAYER1
 62
     7
 10
46.30337666207346
 20
49.37579733069583
 30
0.0
 70
    32
  0
VERTEX
  5
1DB
  8
LAYER1
 62
     7
 10
46.30337666207346
 20
49.37579733069583
 30
0.0
 70
    32
  0
VERTEX
  5
1DC
  8
LAYER1
 62
     7
 10
46.30337666207346
 20
49.37579733069583
 30
0.0
 70
    32
  0
SEQEND
  5
1DD
  8
LAYER1
 62
     7
  0
POLYLINE
  5
1DE
  8
LAYER1
 62
     7
 10
0.0
 20
0.0
 30
0.0
 66
     1
 70
     8
  0
VERTEX
  5
1DF
  8
LAYER1
 62
     7
 10
55.10001249513309
 20
50.37580053487596
 30
0.0
 70
    32
  0
VERTEX
  5
1E0
  8
LAYER1
 62
     7
 10
55.10001249513309
 20
48.37579766982439
 30
0.0
 70
    32
  0
VERTEX
  5
1E1
  8
LAYER1
 62
     7
 10
55.10001249513309
 20
48.37579766982439
 30
0.0
 70
    32
  0
VERTEX
  5
1E2
  8
LAYER1
 62
     7
 10
55.10001249513309
 20
48.37579766982439
 30
0.0
 70
    32
  0
SEQEND
  5
1E3
  8
LAYER1
 62
     7
  0
POLYLINE
  5
1E4
  8
LAYER1
 62
     7
 10
0.0
 20
0.0
 30
0.0
 66
     1
 70
     8
  0
VERTEX
  5
1E5
  8
LAYER1
 62
     7
 10
54.10001283426165
 20
49.37579733069583
 30
0.0
 70
    32
  0
VERTEX
  5
1E6
  8
LAYER1
 62
     7
 10
56.10001215600455
 20
49.37579733069583
 30
0.0
 70
    32
  0
VERTEX
  5
1E7
  8
LAYER1
 62
     7
 10
56.10001215600455
 20
49.37579733069583
 30
0.0
 70
    32
  0
VERTEX
  5
1E8
  8
LAYER1
 62
     7
 10
56.10001215600455
 20
49.37579733069583
 30
0.0
 70
    32
  0
SEQEND
  5
1E9
  8
LAYER1
 62
     7
  0
POLYLINE
  5
1EA
  8
LAYER1
 62
     7
 10
0.0
 20
0.0
 30
0.0
 66
     1
 70
     8
  0
VERTEX
  5
1EB
  8
LAYER1
 62
     7
 10
6.799992024631964
 20
35.37578436195219
 30
0.0
 70
    32
  0
VERTEX
  5
1EC
  8
LAYER1
 62
     7
 10
6.799992024631964
 20
33.37578504020929
 30
0.0
 70
    32
  0
VERTEX
  5
1ED
  8
LAYER1
 62
     7
 10
6.799992024631964
 20
33.37578504020929
 30
0.0
 70
    32
  0
VERTEX
  5
1EE
  8
LAYER1
 62
     7
 10
6.799992024631964
 20
33.37578504020929
 30
0.0
 70
    32
  0
SEQEND
  5
1EF
  8
LAYER1
 62
     7
  0
POLYLINE
  5
1F0
  8
LAYER1
 62
     7
 10
0.0
 20
0.0
 30
0.0
 66
     1
 70
     8
  0
VERTEX
  5
1F1
  8
LAYER1
 62
     7
 10
5.79998882045184
 20
34.37578470108072
 30
0.0
 70
    32
  0
VERTEX
  5
1F2
  8
LAYER1
 62
     7
 10
7.799991685503402
 20
34.37578470108072
 30
0.0
 70
    32
  0
VERTEX
  5
1F3
  8
LAYER1
 62
     7
 10
7.799991685503402
 20
34.37578470108072
 30
0.0
 70
    32
  0
VERTEX
  5
1F4
  8
LAYER1
 62
     7
 10
7.799991685503402
 20
34.37578470108072
 30
0.0
 70
    32
  0
SEQEND
  5
1F5
  8
LAYER1
 62
     7
  0
POLYLINE
  5
1F6
  8
LAYER1
 62
     7
 10
0.0
 20
0.0
 30
0.0
 66
     1
 70
     8
  0
VERTEX
  5
1F7
  8
LAYER1
 62
     7
 10
15.29999268534793
 20
35.37577727533483
 30
0.0
 70
    32
  0
VERTEX
  5
1F8
  8
LAYER1
 62
     7
 10
15.29999268534793
 20
33.37577441028327
 30
0.0
 70
    32
  0
VERTEX
  5
1F9
  8
LAYER1
 62
     7
 10
15.29999268534793
 20
33.37577441028327
 30
0.0
 70
    32
  0
VERTEX
  5
1FA
  8
LAYER1
 62
     7
 10
15.29999268534793
 20
33.37577441028327
 30
0.0
 70
    32
  0
SEQEND
  5
1FB
  8
LAYER1
 62
     7
  0
POLYLINE
  5
1FC
  8
LAYER1
 62
     7
 10
0.0
 20
0.0
 30
0.0
 66
     1
 70
     8
  0
VERTEX
  5
1FD
  8
LAYER1
 62
     7
 10
14.29999302447649
 20
34.3757776144634
 30
0.0
 70
    32
  0
VERTEX
  5
1FE
  8
LAYER1
 62
     7
 10
16.29999234621939
 20
34.3757776144634
 30
0.0
 70
    32
  0
VERTEX
  5
1FF
  8
LAYER1
 62
     7
 10
16.29999234621939
 20
34.3757776144634
 30
0.0
 70
    32
  0
VERTEX
  5
200
  8
LAYER1
 62
     7
 10
16.29999234621939
 20
34.3757776144634
 30
0.0
 70
    32
  0
SEQEND
  5
201
  8
LAYER1
 62
     7
  0
POLYLINE
  5
202
  8
LAYER1
 62
     7
 10
0.0
 20
0.0
 30
0.0
 66
     1
 70
     8
  0
VERTEX
  5
203
  8
LAYER1
 62
     7
 10
30.30000177165434
 20
35.37577727533483
 30
0.0
 70
    32
  0
VERTEX
  5
204
  8
LAYER1
 62
     7
 10
30.30000177165434
 20
33.37577441028327
 30
0.0
 70
    32
  0
VERTEX
  5
205
  8
LAYER1
 62
     7
 10
30.30000177165434
 20
33.37577441028327
 30
0.0
 70
    32
  0
VERTEX
  5
206
  8
LAYER1
 62
     7
 10
30.30000177165434
 20
33.37577441028327
 30
0.0
 70
    32
  0
SEQEND
  5
207
  8
LAYER1
 62
     7
  0
POLYLINE
  5
208
  8
LAYER1
 62
     7
 10
0.0
 20
0.0
 30
0.0
 66
     1
 70
     8
  0
VERTEX
  5
209
  8
LAYER1
 62
     7
 10
29.29999856747422
 20
34.3757776144634
 30
0.0
 70
    32
  0
VERTEX
  5
20A
  8
LAYER1
 62
     7
 10
31.30000143252578
 20
34.3757776144634
 30
0.0
 70
    32
  0
VERTEX
  5
20B
  8
LAYER1
 62
     7
 10
31.30000143252578
 20
34.3757776144634
 30
0.0
 70
    32
  0
VERTEX
  5
20C
  8
LAYER1
 62
     7
 10
31.30000143252578
 20
34.3757776144634
 30
0.0
 70
    32
  0
SEQEND
  5
20D
  8
LAYER1
 62
     7
  0
POLYLINE
  5
20E
  8
LAYER1
 62
     7
 10
0.0
 20
0.0
 30
0.0
 66
     1
 70
     8
  0
VERTEX
  5
20F
  8
LAYER1
 62
     7
 10
45.30337700120198
 20
35.37577727533483
 30
0.0
 70
    32
  0
VERTEX
  5
210
  8
LAYER1
 62
     7
 10
45.30337700120198
 20
33.37577441028327
 30
0.0
 70
    32
  0
VERTEX
  5
211
  8
LAYER1
 62
     7
 10
45.30337700120198
 20
33.37577441028327
 30
0.0
 70
    32
  0
VERTEX
  5
212
  8
LAYER1
 62
     7
 10
45.30337700120198
 20
33.37577441028327
 30
0.0
 70
    32
  0
SEQEND
  5
213
  8
LAYER1
 62
     7
  0
POLYLINE
  5
214
  8
LAYER1
 62
     7
 10
0.0
 20
0.0
 30
0.0
 66
     1
 70
     8
  0
VERTEX
  5
215
  8
LAYER1
 62
     7
 10
44.30337734033054
 20
34.3757776144634
 30
0.0
 70
    32
  0
VERTEX
  5
216
  8
LAYER1
 62
     7
 10
46.30337666207346
 20
34.3757776144634
 30
0.0
 70
    32
  0
VERTEX
  5
217
  8
LAYER1
 62
     7
 10
46.30337666207346
 20
34.3757776144634
 30
0.0
 70
    32
  0
VERTEX
  5
218
  8
LAYER1
 62
     7
 10
46.30337666207346
 20
34.3757776144634
 30
0.0
 70
    32
  0
SEQEND
  5
219
  8
LAYER1
 62
     7
  0
POLYLINE
  5
21A
  8
LAYER1
 62
     7
 10
0.0
 20
0.0
 30
0.0
 66
     1
 70
     8
  0
VERTEX
  5
21B
  8
LAYER1
 62
     7
 10
55.10001249513309
 20
35.37577727533483
 30
0.0
 70
    32
  0
VERTEX
  5
21C
  8
LAYER1
 62
     7
 10
55.10001249513309
 20
33.37577441028327
 30
0.0
 70
    32
  0
VERTEX
  5
21D
  8
LAYER1
 62
     7
 10
55.10001249513309
 20
33.37577441028327
 30
0.0
 70
    32
  0
VERTEX
  5
21E
  8
LAYER1
 62
     7
 10
55.10001249513309
 20
33.37577441028327
 30
0.0
 70
    32
  0
SEQEND
  5
21F
  8
LAYER1
 62
     7
  0
POLYLINE
  5
220
  8
LAYER1
 62
     7
 10
0.0
 20
0.0
 30
0.0
 66
     1
 70
     8
  0
VERTEX
  5
221
  8
LAYER1
 62
     7
 10
54.10001283426165
 20
34.3757776144634
 30
0.0
 70
    32
  0
VERTEX
  5
222
  8
LAYER1
 62
     7
 10
56.10001215600455
 20
34.3757776144634
 30
0.0
 70
    32
  0
VERTEX
  5
223
  8
LAYER1
 62
     7
 10
56.10001215600455
 20
34.3757776144634
 30
0.0
 70
    32
  0
VERTEX
  5
224
  8
LAYER1
 62
     7
 10
56.10001215600455
 20
34.3757776144634
 30
0.0
 70
    32
  0
SEQEND
  5
225
  8
LAYER1
 62
     7
  0
POLYLINE
  5
226
  8
LAYER1
 62
     7
 10
0.0
 20
0.0
 30
0.0
 66
     1
 70
     8
  0
VERTEX
  5
227
  8
LAYER1
 62
     7
 10
10.14316045241855
 20
20.37578944888045
 30
0.0
 70
    32
  0
VERTEX
  5
228
  8
LAYER1
 62
     7
 10
10.14316045241855
 20
18.37579012713758
 30
0.0
 70
    32
  0
VERTEX
  5
229
  8
LAYER1
 62
     7
 10
10.14316045241855
 20
18.37579012713758
 30
0.0
 70
    32
  0
VERTEX
  5
22A
  8
LAYER1
 62
     7
 10
10.14316045241855
 20
18.37579012713758
 30
0.0
 70
    32
  0
SEQEND
  5
22B
  8
LAYER1
 62
     7
  0
POLYLINE
  5
22C
  8
LAYER1
 62
     7
 10
0.0
 20
0.0
 30
0.0
 66
     1
 70
     8
  0
VERTEX
  5
22D
  8
LAYER1
 62
     7
 10
9.143160791547096
 20
19.37578978800902
 30
0.0
 70
    32
  0
VERTEX
  5
22E
  8
LAYER1
 62
     7
 10
11.14316011328998
 20
19.37578978800902
 30
0.0
 70
    32
  0
VERTEX
  5
22F
  8
LAYER1
 62
     7
 10
11.14316011328998
 20
19.37578978800902
 30
0.0
 70
    32
  0
VERTEX
  5
230
  8
LAYER1
 62
     7
 10
11.14316011328998
 20
19.37578978800902
 30
0.0
 70
    32
  0
SEQEND
  5
231
  8
LAYER1
 62
     7
  0
POLYLINE
  5
232
  8
LAYER1
 62
     7
 10
0.0
 20
0.0
 30
0.0
 66
     1
 70
     8
  0
VERTEX
  5
233
  8
LAYER1
 62
     7
 10
30.29999822834567
 20
20.37579299218916
 30
0.0
 70
    32
  0
VERTEX
  5
234
  8
LAYER1
 62
     7
 10
30.29999822834567
 20
18.37579367044624
 30
0.0
 70
    32
  0
VERTEX
  5
235
  8
LAYER1
 62
     7
 10
30.29999822834567
 20
18.37579367044624
 30
0.0
 70
    32
  0
VERTEX
  5
236
  8
LAYER1
 62
     7
 10
30.29999822834567
 20
18.37579367044624
 30
0.0
 70
    32
  0
SEQEND
  5
237
  8
LAYER1
 62
     7
  0
POLYLINE
  5
238
  8
LAYER1
 62
     7
 10
0.0
 20
0.0
 30
0.0
 66
     1
 70
     8
  0
VERTEX
  5
239
  8
LAYER1
 62
     7
 10
29.29999856747422
 20
19.3757933313177
 30
0.0
 70
    32
  0
VERTEX
  5
23A
  8
LAYER1
 62
     7
 10
31.30000143252578
 20
19.3757933313177
 30
0.0
 70
    32
  0
VERTEX
  5
23B
  8
LAYER1
 62
     7
 10
31.30000143252578
 20
19.3757933313177
 30
0.0
 70
    32
  0
VERTEX
  5
23C
  8
LAYER1
 62
     7
 10
31.30000143252578
 20
19.3757933313177
 30
0.0
 70
    32
  0
SEQEND
  5
23D
  8
LAYER1
 62
     7
  0
POLYLINE
  5
23E
  8
LAYER1
 62
     7
 10
0.0
 20
0.0
 30
0.0
 66
     1
 70
     8
  0
VERTEX
  5
23F
  8
LAYER1
 62
     7
 10
18.74026548737246
 20
15.12580008757705
 30
0.0
 70
    32
  0
VERTEX
  5
240
  8
LAYER1
 62
     7
 10
18.74026548737246
 20
13.12579722252549
 30
0.0
 70
    32
  0
VERTEX
  5
241
  8
LAYER1
 62
     7
 10
18.74026548737246
 20
13.12579722252549
 30
0.0
 70
    32
  0
VERTEX
  5
242
  8
LAYER1
 62
     7
 10
18.74026548737246
 20
13.12579722252549
 30
0.0
 70
    32
  0
SEQEND
  5
243
  8
LAYER1
 62
     7
  0
POLYLINE
  5
244
  8
LAYER1
 62
     7
 10
0.0
 20
0.0
 30
0.0
 66
     1
 70
     8
  0
VERTEX
  5
245
  8
LAYER1
 62
     7
 10
17.74026582650101
 20
14.12579688339693
 30
0.0
 70
    32
  0
VERTEX
  5
246
  8
LAYER1
 62
     7
 10
19.74026514824392
 20
14.12579688339693
 30
0.0
 70
    32
  0
VERTEX
  5
247
  8
LAYER1
 62
     7
 10
19.74026514824392
 20
14.12579688339693
 30
0.0
 70
    32
  0
VERTEX
  5
248
  8
LAYER1
 62
     7
 10
19.74026514824392
 20
14.12579688339693
 30
0.0
 70
    32
  0
SEQEND
  5
249
  8
LAYER1
 62
     7
  0
POLYLINE
  5
24A
  8
LAYER1
 62
     7
 10
0.0
 20
0.0
 30
0.0
 66
     1
 70
     8
  0
VERTEX
  5
24B
  8
LAYER1
 62
     7
 10
55.10001249513309
 20
20.37579299218916
 30
0.0
 70
    32
  0
VERTEX
  5
24C
  8
LAYER1
 62
     7
 10
55.10001249513309
 20
18.37579012713758
 30
0.0
 70
    32
  0
VERTEX
  5
24D
  8
LAYER1
 62
     7
 10
55.10001249513309
 20
18.37579012713758
 30
0.0
 70
    32
  0
VERTEX
  5
24E
  8
LAYER1
 62
     7
 10
55.10001249513309
 20
18.37579012713758
 30
0.0
 70
    32
  0
SEQEND
  5
24F
  8
LAYER1
 62
     7
  0
POLYLINE
  5
250
  8
LAYER1
 62
     7
 10
0.0
 20
0.0
 30
0.0
 66
     1
 70
     8
  0
VERTEX
  5
251
  8
LAYER1
 62
     7
 10
54.10001283426165
 20
19.37578978800902
 30
0.0
 70
    32
  0
VERTEX
  5
252
  8
LAYER1
 62
     7
 10
56.10001215600455
 20
19.37578978800902
 30
0.0
 70
    32
  0
VERTEX
  5
253
  8
LAYER1
 62
     7
 10
56.10001215600455
 20
19.37578978800902
 30
0.0
 70
    32
  0
VERTEX
  5
254
  8
LAYER1
 62
     7
 10
56.10001215600455
 20
19.37578978800902
 30
0.0
 70
    32
  0
SEQEND
  5
255
  8
LAYER1
 62
     7
  0
POLYLINE
  5
256
  8
LAYER1
 62
     7
 10
0.0
 20
0.0
 30
0.0
 66
     1
 70
     8
  0
VERTEX
  5
257
  8
LAYER1
 62
     7
 10
47.3400460244223
 20
25.62579652672723
 30
0.0
 70
    32
  0
VERTEX
  5
258
  8
LAYER1
 62
     7
 10
47.3400460244223
 20
23.62579720498438
 30
0.0
 70
    32
  0
VERTEX
  5
259
  8
LAYER1
 62
     7
 10
47.3400460244223
 20
23.62579720498438
 30
0.0
 70
    32
  0
VERTEX
  5
25A
  8
LAYER1
 62
     7
 10
47.3400460244223
 20
23.62579720498438
 30
0.0
 70
    32
  0
SEQEND
  5
25B
  8
LAYER1
 62
     7
  0
POLYLINE
  5
25C
  8
LAYER1
 62
     7
 10
0.0
 20
0.0
 30
0.0
 66
     1
 70
     8
  0
VERTEX
  5
25D
  8
LAYER1
 62
     7
 10
46.34004636355086
 20
24.6257968658558
 30
0.0
 70
    32
  0
VERTEX
  5
25E
  8
LAYER1
 62
     7
 10
48.34004568529374
 20
24.6257968658558
 30
0.0
 70
    32
  0
VERTEX
  5
25F
  8
LAYER1
 62
     7
 10
48.34004568529374
 20
24.6257968658558
 30
0.0
 70
    32
  0
VERTEX
  5
260
  8
LAYER1
 62
     7
 10
48.34004568529374
 20
24.6257968658558
 30
0.0
 70
    32
  0
SEQEND
  5
261
  8
LAYER1
 62
     7
  0
POLYLINE
  5
262
  8
LAYER1
 62
     7
 10
0.0
 20
0.0
 30
0.0
 66
     1
 70
     8
  0
VERTEX
  5
263
  8
LAYER1
 62
     7
 10
47.3400460244223
 20
22.12579771367719
 30
0.0
 70
    32
  0
VERTEX
  5
264
  8
LAYER1
 62
     7
 10
47.3400460244223
 20
20.12579484862561
 30
0.0
 70
    32
  0
VERTEX
  5
265
  8
LAYER1
 62
     7
 10
47.3400460244223
 20
20.12579484862561
 30
0.0
 70
    32
  0
VERTEX
  5
266
  8
LAYER1
 62
     7
 10
47.3400460244223
 20
20.12579484862561
 30
0.0
 70
    32
  0
SEQEND
  5
267
  8
LAYER1
 62
     7
  0
POLYLINE
  5
268
  8
LAYER1
 62
     7
 10
0.0
 20
0.0
 30
0.0
 66
     1
 70
     8
  0
VERTEX
  5
269
  8
LAYER1
 62
     7
 10
46.34004636355086
 20
21.12579450949707
 30
0.0
 70
    32
  0
VERTEX
  5
26A
  8
LAYER1
 62
     7
 10
48.34004568529374
 20
21.12579450949707
 30
0.0
 70
    32
  0
VERTEX
  5
26B
  8
LAYER1
 62
     7
 10
48.34004568529374
 20
21.12579450949707
 30
0.0
 70
    32
  0
VERTEX
  5
26C
  8
LAYER1
 62
     7
 10
48.34004568529374
 20
21.12579450949707
 30
0.0
 70
    32
  0
SEQEND
  5
26D
  8
LAYER1
 62
     7
  0
POLYLINE
  5
26E
  8
LAYER1
 62
     7
 10
0.0
 20
0.0
 30
0.0
 66
     1
 70
     8
  0
VERTEX
  5
26F
  8
LAYER1
 62
     7
 10
47.3400460244223
 20
18.62579535731844
 30
0.0
 70
    32
  0
VERTEX
  5
270
  8
LAYER1
 62
     7
 10
47.3400460244223
 20
16.62579249226687
 30
0.0
 70
    32
  0
VERTEX
  5
271
  8
LAYER1
 62
     7
 10
47.3400460244223
 20
16.62579249226687
 30
0.0
 70
    32
  0
VERTEX
  5
272
  8
LAYER1
 62
     7
 10
47.3400460244223
 20
16.62579249226687
 30
0.0
 70
    32
  0
SEQEND
  5
273
  8
LAYER1
 62
     7
  0
POLYLINE
  5
274
  8
LAYER1
 62
     7
 10
0.0
 20
0.0
 30
0.0
 66
     1
 70
     8
  0
VERTEX
  5
275
  8
LAYER1
 62
     7
 10
46.34004636355086
 20
17.625795696447
 30
0.0
 70
    32
  0
VERTEX
  5
276
  8
LAYER1
 62
     7
 10
48.34004568529374
 20
17.625795696447
 30
0.0
 70
    32
  0
VERTEX
  5
277
  8
LAYER1
 62
     7
 10
48.34004568529374
 20
17.625795696447
 30
0.0
 70
    32
  0
VERTEX
  5
278
  8
LAYER1
 62
     7
 10
48.34004568529374
 20
17.625795696447
 30
0.0
 70
    32
  0
SEQEND
  5
279
  8
LAYER1
 62
     7
  0
POLYLINE
  5
27A
  8
LAYER1
 62
     7
 10
0.0
 20
0.0
 30
0.0
 66
     1
 70
     8
  0
VERTEX
  5
27B
  8
LAYER1
 62
     7
 10
47.3400460244223
 20
15.12579300095971
 30
0.0
 70
    32
  0
VERTEX
  5
27C
  8
LAYER1
 62
     7
 10
47.3400460244223
 20
13.12579367921679
 30
0.0
 70
    32
  0
VERTEX
  5
27D
  8
LAYER1
 62
     7
 10
47.3400460244223
 20
13.12579367921679
 30
0.0
 70
    32
  0
VERTEX
  5
27E
  8
LAYER1
 62
     7
 10
47.3400460244223
 20
13.12579367921679
 30
0.0
 70
    32
  0
SEQEND
  5
27F
  8
LAYER1
 62
     7
  0
POLYLINE
  5
280
  8
LAYER1
 62
     7
 10
0.0
 20
0.0
 30
0.0
 66
     1
 70
     8
  0
VERTEX
  5
281
  8
LAYER1
 62
     7
 10
46.34004636355086
 20
14.12579334008827
 30
0.0
 70
    32
  0
VERTEX
  5
282
  8
LAYER1
 62
     7
 10
48.34004568529374
 20
14.12579334008827
 30
0.0
 70
    32
  0
VERTEX
  5
283
  8
LAYER1
 62
     7
 10
48.34004568529374
 20
14.12579334008827
 30
0.0
 70
    32
  0
VERTEX
  5
284
  8
LAYER1
 62
     7
 10
48.34004568529374
 20
14.12579334008827
 30
0.0
 70
    32
  0
SEQEND
  5
285
  8
LAYER1
 62
     7
  0
LINE
  5
286
  8
LAYER1
 62
    18
 10
0.0
 20
128.5000379180805
 30
0.0
 11
60.6
 21
128.5000379180805
 31
0.0
  0
LINE
  5
287
  8
LAYER1
 62
    18
 10
60.6
 20
128.5000379180805
 30
0.0
 11
60.6
 21
0.0
 31
0.0
  0
LINE
  5
288
  8
LAYER1
 62
    18
 10
60.6
 20
0.0
 30
0.0
 11
0.0
 21
0.0
 31
0.0
  0
LINE
  5
289
  8
LAYER1
 62
    18
 10
0.0
 20
0.0
 30
0.0
 11
0.0
 21
128.5000379180805
 31
0.0
  0
LINE
  5
28A
  8
LAYER1
 62
    18
 10
-0.0000035433086741
 20
11.74999070027651
 30
0.0
 11
60.59999291338268
 21
11.74999070027651
 31
0.0
  0
LINE
  5
28B
  8
LAYER1
 62
    18
 10
-0.0000035433086741
 20
116.7500330445693
 30
0.0
 11
60.59999291338268
 21
116.7500330445693
 31
0.0
  0
ENDSEC
  0
EOF
